<svg xmlns="http://www.w3.org/2000/svg" width="480" height="596" fill="none"><g filter="url(#a)"><g clip-path="url(#b)"><path fill="#fff" d="M20 24c0-11.046 8.954-20 20-20h400c11.046 0 20 8.954 20 20v516c0 11.046-8.954 20-20 20H40c-11.046 0-20-8.954-20-20V24Z"/><mask id="c" fill="#fff"><path d="M20 4h440v72H20V4Z"/></mask><path fill="#fff" d="M20 4h440v72H20V4Z"/><path fill="#E1E4EA" d="M460 75H20v2h440v-2Z" mask="url(#c)"/><path fill="#fff" d="M40.5 40c0-10.77 8.73-19.5 19.5-19.5S79.5 29.23 79.5 40 70.77 59.5 60 59.5 40.5 50.77 40.5 40Z"/><path stroke="#E1E4EA" d="M40.5 40c0-10.77 8.73-19.5 19.5-19.5S79.5 29.23 79.5 40 70.77 59.5 60 59.5 40.5 50.77 40.5 40Z"/><path fill="#525866" d="m66.75 36.068-1.5 1.5V34H58.5v3.75h-3.75V46h10.5v-2.068l1.5-1.5v4.324a.744.744 0 0 1-.745.744h-12.01a.75.75 0 0 1-.745-.755V37l4.502-4.5H66c.413 0 .751.341.751.744v2.824Zm.584 1.537 1.06 1.062L62.56 44.5l-1.062-.002.002-1.058 5.834-5.834Z"/><path fill="#0E121B" d="M103.337 24.818V35h-1.412l-5.176-7.467h-.094V35h-1.536V24.818h1.421l5.181 7.477h.094v-7.477h1.522Zm5.328 10.336c-.752 0-1.4-.16-1.943-.482a3.267 3.267 0 0 1-1.253-1.367c-.292-.59-.438-1.281-.438-2.073 0-.783.146-1.472.438-2.069a3.398 3.398 0 0 1 1.233-1.397c.53-.334 1.15-.502 1.859-.502.431 0 .849.072 1.253.214.404.142.767.366 1.089.671.321.305.575.701.76 1.188.186.484.279 1.073.279 1.765v.527h-6.071v-1.113h4.614c0-.391-.079-.738-.239-1.04a1.798 1.798 0 0 0-.671-.72 1.875 1.875 0 0 0-1.004-.264c-.418 0-.782.103-1.094.308a2.071 2.071 0 0 0-.716.796 2.305 2.305 0 0 0-.248 1.059v.87c0 .51.089.944.268 1.302.183.358.436.632.761.82.325.186.704.28 1.138.28.282 0 .539-.04.771-.12a1.591 1.591 0 0 0 .989-.97l1.407.254a2.547 2.547 0 0 1-.606 1.089 2.951 2.951 0 0 1-1.089.72c-.434.17-.93.254-1.487.254Zm6.484-.154-2.247-7.636h1.536l1.496 5.608h.075l1.501-5.608h1.537l1.491 5.583h.075l1.486-5.583h1.536L121.393 35h-1.516l-1.551-5.514h-.115L116.66 35h-1.511Zm13.554 0V24.818h1.536v8.86h4.613V35h-6.149Zm10.99.154c-.753 0-1.401-.16-1.944-.482a3.273 3.273 0 0 1-1.253-1.367c-.292-.59-.437-1.281-.437-2.073 0-.783.145-1.472.437-2.069a3.398 3.398 0 0 1 1.233-1.397c.53-.334 1.15-.502 1.859-.502.431 0 .849.072 1.253.214.405.142.767.366 1.089.671.321.305.575.701.761 1.188.185.484.278 1.073.278 1.765v.527h-6.07v-1.113h4.613a2.2 2.2 0 0 0-.238-1.04 1.805 1.805 0 0 0-.671-.72 1.876 1.876 0 0 0-1.005-.264c-.417 0-.782.103-1.093.308a2.063 2.063 0 0 0-.716.796 2.293 2.293 0 0 0-.249 1.059v.87c0 .51.09.944.269 1.302.182.358.435.632.76.82.325.186.704.28 1.139.28.281 0 .538-.04.77-.12.232-.083.433-.206.602-.368.169-.163.298-.363.388-.602l1.407.254a2.549 2.549 0 0 1-.607 1.089 2.935 2.935 0 0 1-1.089.72c-.434.17-.929.254-1.486.254Zm8.406-7.79v1.193h-4.171v-1.193h4.171Zm-3.053-1.83h1.487v7.224c0 .288.043.505.129.651a.67.67 0 0 0 .333.293c.139.05.29.075.453.075.119 0 .223-.008.313-.025.089-.016.159-.03.209-.04l.268 1.228a2.497 2.497 0 0 1-.368.1 2.913 2.913 0 0 1-.596.06 2.616 2.616 0 0 1-1.094-.21 1.871 1.871 0 0 1-.82-.675c-.209-.305-.314-.688-.314-1.149v-7.532Zm8.178 1.83v1.193h-4.171v-1.193h4.171Zm-3.053-1.83h1.487v7.224c0 .288.043.505.129.651a.67.67 0 0 0 .333.293c.139.05.29.075.453.075.119 0 .223-.008.313-.025.089-.016.159-.03.209-.04l.268 1.228a2.497 2.497 0 0 1-.368.1 2.913 2.913 0 0 1-.596.06 2.616 2.616 0 0 1-1.094-.21 1.871 1.871 0 0 1-.82-.675c-.209-.305-.314-.688-.314-1.149v-7.532Zm7.822 9.62c-.752 0-1.4-.16-1.943-.482a3.267 3.267 0 0 1-1.253-1.367c-.292-.59-.438-1.281-.438-2.073 0-.783.146-1.472.438-2.069a3.398 3.398 0 0 1 1.233-1.397c.53-.334 1.15-.502 1.859-.502.431 0 .849.072 1.253.214.404.142.767.366 1.089.671.321.305.575.701.76 1.188.186.484.279 1.073.279 1.765v.527h-6.071v-1.113h4.614c0-.391-.079-.738-.239-1.04a1.798 1.798 0 0 0-.671-.72 1.875 1.875 0 0 0-1.004-.264c-.418 0-.782.103-1.094.308a2.071 2.071 0 0 0-.716.796 2.305 2.305 0 0 0-.248 1.059v.87c0 .51.089.944.268 1.302.183.358.436.632.761.82.325.186.704.28 1.138.28.282 0 .539-.04.771-.12a1.591 1.591 0 0 0 .989-.97l1.407.254a2.547 2.547 0 0 1-.606 1.089 2.951 2.951 0 0 1-1.089.72c-.434.17-.93.254-1.487.254Zm4.842-.154v-7.636h1.437v1.213h.079c.14-.411.385-.734.736-.97a2.107 2.107 0 0 1 1.203-.358 6.34 6.34 0 0 1 .632.035v1.422a2.688 2.688 0 0 0-.318-.055 3.044 3.044 0 0 0-.458-.035 1.94 1.94 0 0 0-.939.224 1.662 1.662 0 0 0-.885 1.497V35h-1.487Zm8.527-8.86v-1.322h7.88v1.323h-3.176V35h-1.532v-8.86h-3.172Zm9.483 11.724c-.222 0-.424-.019-.607-.055a1.9 1.9 0 0 1-.407-.11l.358-1.218c.272.073.513.105.726.095a.867.867 0 0 0 .561-.239c.166-.149.312-.392.438-.73l.184-.508-2.794-7.735h1.591l1.934 5.926h.079l1.934-5.926h1.596l-3.147 8.655a3.443 3.443 0 0 1-.557 1.01 2.162 2.162 0 0 1-.805.626 2.64 2.64 0 0 1-1.084.209Zm6.906 0v-10.5h1.452v1.238h.124c.086-.16.21-.343.373-.552.162-.21.388-.391.676-.547.288-.16.67-.239 1.144-.239.616 0 1.166.156 1.65.468.484.311.863.76 1.139 1.347.278.587.417 1.292.417 2.118 0 .825-.137 1.533-.412 2.123-.276.586-.653 1.039-1.134 1.357a2.936 2.936 0 0 1-1.646.472c-.464 0-.843-.078-1.138-.233a2.154 2.154 0 0 1-.686-.547 4.164 4.164 0 0 1-.383-.557h-.089v4.052h-1.487Zm1.457-6.682c0 .537.078 1.007.233 1.412.156.404.382.72.677.95.294.225.656.337 1.083.337.444 0 .816-.117 1.114-.353a2.18 2.18 0 0 0 .676-.97c.156-.407.234-.866.234-1.376 0-.504-.076-.956-.229-1.357a2.073 2.073 0 0 0-.676-.95c-.298-.232-.671-.348-1.119-.348-.431 0-.795.111-1.093.333-.295.222-.519.532-.672.93-.152.398-.228.861-.228 1.392Zm10.391 3.972c-.753 0-1.4-.16-1.944-.482a3.273 3.273 0 0 1-1.253-1.367c-.292-.59-.437-1.281-.437-2.073 0-.783.145-1.472.437-2.069a3.398 3.398 0 0 1 1.233-1.397c.53-.334 1.15-.502 1.859-.502.431 0 .849.072 1.253.214.405.142.768.366 1.089.671.322.305.575.701.761 1.188.185.484.278 1.073.278 1.765v.527h-6.07v-1.113h4.613a2.2 2.2 0 0 0-.238-1.04 1.805 1.805 0 0 0-.671-.72 1.876 1.876 0 0 0-1.005-.264c-.417 0-.782.103-1.093.308a2.063 2.063 0 0 0-.716.796 2.293 2.293 0 0 0-.249 1.059v.87c0 .51.09.944.269 1.302.182.358.435.632.76.82.325.186.705.28 1.139.28.281 0 .538-.04.77-.12.232-.083.433-.206.602-.368.169-.163.298-.363.388-.602l1.407.254a2.549 2.549 0 0 1-.607 1.089 2.935 2.935 0 0 1-1.089.72c-.434.17-.929.254-1.486.254Z"/><path fill="#525866" d="M95.057 56v-8.727h2.949c.684 0 1.244.123 1.679.37.437.245.761.576.971.993.21.418.316.884.316 1.398 0 .514-.106.982-.316 1.402a2.34 2.34 0 0 1-.963 1.006c-.434.247-.991.37-1.67.37h-2.114v-.937h2.08c.468 0 .845-.081 1.129-.243.284-.162.49-.38.618-.656a2.19 2.19 0 0 0 .196-.942c0-.35-.066-.662-.196-.937a1.398 1.398 0 0 0-.622-.648c-.287-.16-.668-.239-1.142-.239h-1.858V56h-1.057Zm10.155.136c-.631 0-1.175-.139-1.632-.417a2.8 2.8 0 0 1-1.053-1.176c-.244-.506-.366-1.094-.366-1.765 0-.67.122-1.261.366-1.772a2.892 2.892 0 0 1 1.031-1.202c.443-.29.96-.435 1.551-.435a3.1 3.1 0 0 1 1.01.17 2.5 2.5 0 0 1 .908.555c.273.253.49.588.652 1.005.162.418.243.932.243 1.543v.426h-5.046v-.87h4.023c0-.368-.074-.698-.221-.988a1.673 1.673 0 0 0-.623-.686 1.741 1.741 0 0 0-.946-.251c-.4 0-.747.1-1.039.298a1.96 1.96 0 0 0-.669.767 2.244 2.244 0 0 0-.235 1.014v.58c0 .494.085.913.256 1.257.173.34.413.6.72.78a2.11 2.11 0 0 0 1.07.264c.264 0 .502-.037.716-.11.215-.078.402-.191.558-.342.156-.153.277-.343.362-.57l.972.272c-.103.33-.275.62-.516.87-.241.246-.54.44-.895.579a3.316 3.316 0 0 1-1.197.204Zm4.24-.136v-6.545h.971v.988h.068c.12-.324.336-.587.648-.788a1.908 1.908 0 0 1 1.057-.303 10.862 10.862 0 0 1 .528.017v1.023a2.968 2.968 0 0 0-.234-.038 2.304 2.304 0 0 0-.379-.03 1.78 1.78 0 0 0-.852.2 1.47 1.47 0 0 0-.802 1.334V56h-1.005Zm9.101-5.08-.903.256a1.682 1.682 0 0 0-.252-.439 1.223 1.223 0 0 0-.443-.358c-.188-.093-.428-.14-.72-.14-.401 0-.735.092-1.002.277-.264.181-.396.413-.396.694 0 .25.091.448.273.593.182.144.466.265.852.362l.972.238c.585.142 1.021.36 1.308.652.287.29.43.664.43 1.121 0 .375-.108.71-.324 1.006a2.145 2.145 0 0 1-.895.699c-.383.17-.829.255-1.338.255-.667 0-1.22-.145-1.657-.434-.438-.29-.715-.713-.831-1.27l.954-.239c.091.352.263.617.516.793.256.176.589.264 1.001.264.469 0 .841-.1 1.117-.298.278-.202.417-.444.417-.725a.761.761 0 0 0-.238-.57c-.159-.157-.404-.273-.733-.35l-1.091-.256c-.599-.142-1.04-.362-1.321-.66-.278-.301-.418-.678-.418-1.13 0-.369.104-.696.311-.98.211-.284.496-.507.857-.669a3.011 3.011 0 0 1 1.236-.243c.647 0 1.156.142 1.525.426.372.285.637.66.793 1.125Zm4.292 5.216c-.591 0-1.109-.14-1.555-.422a2.868 2.868 0 0 1-1.04-1.18c-.247-.506-.371-1.096-.371-1.773 0-.681.124-1.277.371-1.785.25-.509.597-.904 1.04-1.185.446-.281.964-.422 1.555-.422s1.108.14 1.551.422a2.82 2.82 0 0 1 1.04 1.185c.25.508.375 1.104.375 1.785 0 .676-.125 1.267-.375 1.773-.247.506-.594.9-1.04 1.18-.443.282-.96.422-1.551.422Zm0-.903c.449 0 .818-.115 1.108-.345.29-.23.504-.533.644-.908a3.48 3.48 0 0 0 .208-1.219c0-.437-.069-.845-.208-1.223a2.066 2.066 0 0 0-.644-.916c-.29-.233-.659-.35-1.108-.35-.449 0-.818.117-1.108.35-.29.233-.504.538-.643.916a3.515 3.515 0 0 0-.209 1.223c0 .438.07.844.209 1.22.139.374.353.677.643.907.29.23.659.345 1.108.345Zm5.507-3.17V56h-1.006v-6.545h.972v1.022h.085c.153-.332.386-.6.699-.8.312-.205.716-.308 1.21-.308.443 0 .831.091 1.163.273.333.179.591.452.776.818.185.364.277.824.277 1.38V56h-1.006v-4.09c0-.515-.133-.916-.4-1.203-.267-.29-.634-.434-1.1-.434-.321 0-.608.07-.86.208-.25.14-.448.343-.593.61-.145.267-.217.59-.217.971Zm7.94 4.09c-.415 0-.791-.078-1.129-.234a1.941 1.941 0 0 1-.806-.686c-.199-.301-.298-.665-.298-1.091 0-.375.074-.679.222-.912a1.56 1.56 0 0 1 .592-.554 3.12 3.12 0 0 1 .818-.298 10.1 10.1 0 0 1 .908-.162c.397-.051.72-.09.967-.115.25-.029.432-.075.546-.14.116-.066.174-.18.174-.342v-.034c0-.42-.115-.747-.345-.98-.227-.233-.572-.35-1.035-.35-.481 0-.857.106-1.13.316-.272.21-.464.435-.575.673l-.955-.34c.171-.398.398-.708.682-.93.287-.224.6-.38.938-.468a3.888 3.888 0 0 1 1.005-.137c.211 0 .452.026.725.077.275.048.541.15.797.303.258.153.473.384.643.694.171.31.256.725.256 1.245V56h-1.006v-.886h-.051a1.768 1.768 0 0 1-.341.456 1.97 1.97 0 0 1-.635.413c-.264.114-.586.17-.967.17Zm.153-.903c.398 0 .733-.078 1.006-.234a1.59 1.59 0 0 0 .835-1.385v-.92c-.042.05-.136.097-.281.14a4.65 4.65 0 0 1-.494.106 22.082 22.082 0 0 1-.963.128c-.262.034-.506.09-.733.166a1.261 1.261 0 0 0-.546.337c-.136.148-.204.35-.204.605 0 .35.129.614.387.793.262.176.593.264.993.264Zm5.688-7.977V56h-1.006v-8.727h1.006ZM143.975 56v-6.545h1.006V56h-1.006Zm.512-7.636a.715.715 0 0 1-.508-.2.644.644 0 0 1-.208-.482c0-.188.069-.348.208-.482a.716.716 0 0 1 .508-.2.7.7 0 0 1 .502.2.637.637 0 0 1 .213.482.638.638 0 0 1-.213.481.698.698 0 0 1-.502.2Zm6.972 2.556-.903.256a1.682 1.682 0 0 0-.252-.439 1.215 1.215 0 0 0-.443-.358c-.187-.093-.427-.14-.72-.14-.401 0-.734.092-1.001.277-.265.181-.397.413-.397.694 0 .25.091.448.273.593.182.144.466.265.852.362l.972.238c.585.142 1.021.36 1.308.652.287.29.43.664.43 1.121 0 .375-.107.71-.323 1.006a2.151 2.151 0 0 1-.895.699c-.384.17-.83.255-1.338.255-.668 0-1.221-.145-1.658-.434-.438-.29-.714-.713-.831-1.27l.955-.239c.09.352.262.617.515.793.256.176.59.264 1.002.264.468 0 .841-.1 1.116-.298.279-.202.418-.444.418-.725a.762.762 0 0 0-.239-.57c-.159-.157-.403-.273-.733-.35l-1.091-.256c-.599-.142-1.04-.362-1.321-.66-.278-.301-.417-.678-.417-1.13 0-.369.103-.696.311-.98.21-.284.495-.507.856-.669a3.011 3.011 0 0 1 1.236-.243c.648 0 1.156.142 1.526.426.372.285.636.66.792 1.125Zm4.378 5.216c-.631 0-1.175-.139-1.632-.417a2.8 2.8 0 0 1-1.053-1.176c-.244-.506-.366-1.094-.366-1.765 0-.67.122-1.261.366-1.772a2.892 2.892 0 0 1 1.031-1.202c.443-.29.96-.435 1.551-.435a3.1 3.1 0 0 1 1.01.17 2.5 2.5 0 0 1 .908.555c.273.253.49.588.652 1.005.162.418.243.932.243 1.543v.426h-5.046v-.87h4.023c0-.368-.074-.698-.221-.988a1.673 1.673 0 0 0-.623-.686 1.741 1.741 0 0 0-.946-.251c-.4 0-.747.1-1.039.298a1.96 1.96 0 0 0-.669.767 2.244 2.244 0 0 0-.235 1.014v.58c0 .494.085.913.256 1.257.173.34.413.6.72.78a2.11 2.11 0 0 0 1.07.264c.264 0 .502-.037.716-.11.215-.078.402-.191.558-.342.156-.153.277-.343.362-.57l.972.272c-.103.33-.275.62-.516.87-.241.246-.54.44-.895.579a3.316 3.316 0 0 1-1.197.204Zm8.262 2.319a2.21 2.21 0 0 1-.733-.12l.256-.886c.244.062.46.085.648.068a.774.774 0 0 0 .498-.251c.148-.148.283-.388.405-.72l.188-.512-2.421-6.58h1.091l1.807 5.216h.068l1.807-5.215h1.091l-2.778 7.5a2.83 2.83 0 0 1-.465.839 1.75 1.75 0 0 1-.643.499 1.989 1.989 0 0 1-.819.162Zm8.457-2.319c-.591 0-1.109-.14-1.555-.422a2.868 2.868 0 0 1-1.04-1.18c-.247-.506-.371-1.096-.371-1.773 0-.681.124-1.277.371-1.785.25-.509.597-.904 1.04-1.185.446-.281.964-.422 1.555-.422s1.108.14 1.551.422a2.82 2.82 0 0 1 1.04 1.185c.25.508.375 1.104.375 1.785 0 .676-.125 1.267-.375 1.773-.247.506-.594.9-1.04 1.18-.443.282-.96.422-1.551.422Zm0-.903c.449 0 .818-.115 1.108-.345.29-.23.504-.533.644-.908a3.48 3.48 0 0 0 .208-1.219c0-.437-.069-.845-.208-1.223a2.066 2.066 0 0 0-.644-.916c-.29-.233-.659-.35-1.108-.35-.449 0-.818.117-1.108.35-.29.233-.504.538-.643.916-.14.378-.209.786-.209 1.223 0 .438.069.844.209 1.22.139.374.353.677.643.907.29.23.659.345 1.108.345Zm8.626-1.91v-3.868h1.006V56h-1.006v-1.108h-.068a2.144 2.144 0 0 1-.716.848c-.324.23-.733.345-1.227.345-.409 0-.773-.09-1.091-.268a1.882 1.882 0 0 1-.75-.818c-.182-.367-.273-.829-.273-1.385v-4.16h1.006v4.091c0 .478.133.858.4 1.142.27.285.614.427 1.032.427.25 0 .504-.064.762-.192a1.66 1.66 0 0 0 .657-.588c.179-.264.268-.601.268-1.01ZM184.03 56v-6.545h.971v.988h.069c.119-.324.335-.587.647-.788a1.908 1.908 0 0 1 1.057-.303 10.862 10.862 0 0 1 .529.017v1.023a3.118 3.118 0 0 0-.235-.038 2.304 2.304 0 0 0-.379-.03 1.78 1.78 0 0 0-.852.2 1.47 1.47 0 0 0-.801 1.334V56h-1.006Zm7.976 0v-8.727h1.057v7.79h4.057V56h-5.114Zm9.358.136c-.631 0-1.175-.139-1.632-.417a2.8 2.8 0 0 1-1.053-1.176c-.244-.506-.366-1.094-.366-1.765 0-.67.122-1.261.366-1.772a2.887 2.887 0 0 1 1.032-1.202c.443-.29.96-.435 1.551-.435.341 0 .677.057 1.01.17.332.114.635.3.907.555.273.253.49.588.652 1.005.162.418.243.932.243 1.543v.426h-5.045v-.87h4.022c0-.368-.073-.698-.221-.988a1.67 1.67 0 0 0-.622-.686 1.744 1.744 0 0 0-.946-.251c-.401 0-.747.1-1.04.298a1.96 1.96 0 0 0-.669.767 2.256 2.256 0 0 0-.234 1.014v.58c0 .494.085.913.255 1.257.174.34.414.6.72.78.307.176.664.264 1.07.264a2.2 2.2 0 0 0 .716-.11c.216-.078.402-.191.558-.342.156-.153.277-.343.362-.57l.972.272c-.102.33-.274.62-.516.87-.241.246-.539.44-.895.579a3.316 3.316 0 0 1-1.197.204Zm7.087-6.681v.852h-3.392v-.852h3.392Zm-2.404-1.569h1.006v6.239c0 .284.041.497.123.64a.648.648 0 0 0 .324.28c.134.046.275.069.422.069.111 0 .202-.006.273-.017l.17-.035.205.904a2.017 2.017 0 0 1-.286.077 2.1 2.1 0 0 1-.464.042c-.284 0-.563-.06-.835-.183a1.66 1.66 0 0 1-.674-.558c-.176-.25-.264-.566-.264-.946v-6.512Zm6.763 1.569v.852h-3.392v-.852h3.392Zm-2.403-1.569h1.005v6.239c0 .284.041.497.124.64a.64.64 0 0 0 .324.28c.133.046.274.069.422.069.11 0 .201-.006.272-.017l.171-.035.204.904a2.035 2.035 0 0 1-.285.077 2.104 2.104 0 0 1-.465.042 2.01 2.01 0 0 1-.835-.183 1.658 1.658 0 0 1-.673-.558c-.176-.25-.264-.566-.264-.946v-6.512Zm6.59 8.25c-.631 0-1.175-.139-1.632-.417a2.8 2.8 0 0 1-1.053-1.176c-.244-.506-.366-1.094-.366-1.765 0-.67.122-1.261.366-1.772a2.892 2.892 0 0 1 1.031-1.202c.444-.29.961-.435 1.552-.435.34 0 .677.057 1.009.17a2.5 2.5 0 0 1 .908.555c.273.253.49.588.652 1.005.162.418.243.932.243 1.543v.426h-5.045v-.87h4.022c0-.368-.074-.698-.221-.988a1.677 1.677 0 0 0-.622-.686 1.744 1.744 0 0 0-.946-.251c-.401 0-.748.1-1.04.298a1.96 1.96 0 0 0-.669.767 2.244 2.244 0 0 0-.235 1.014v.58c0 .494.086.913.256 1.257.173.34.413.6.72.78.307.176.664.264 1.07.264a2.2 2.2 0 0 0 .716-.11c.216-.078.402-.191.558-.342.156-.153.277-.343.362-.57l.972.272c-.103.33-.274.62-.516.87-.241.246-.54.44-.895.579a3.316 3.316 0 0 1-1.197.204Zm4.24-.136v-6.545h.971v.988h.069c.119-.324.335-.587.647-.788a1.908 1.908 0 0 1 1.057-.303 10.862 10.862 0 0 1 .529.017v1.023a3.118 3.118 0 0 0-.235-.038 2.304 2.304 0 0 0-.379-.03 1.78 1.78 0 0 0-.852.2 1.47 1.47 0 0 0-.801 1.334V56h-1.006Zm7.499-7.79v-.937h6.545v.937h-2.744V56h-1.057v-7.79h-2.744Zm7.938 10.245c-.171 0-.323-.015-.456-.043a1.189 1.189 0 0 1-.277-.077l.255-.886c.245.062.461.085.648.068a.776.776 0 0 0 .499-.251c.147-.148.282-.388.405-.72l.187-.512-2.42-6.58h1.09l1.807 5.216h.068l1.807-5.215h1.091l-2.778 7.5a2.83 2.83 0 0 1-.465.839c-.184.225-.399.39-.643.499a1.984 1.984 0 0 1-.818.162Zm6.032 0v-9h.971v1.04h.12c.073-.114.176-.26.306-.435.134-.18.324-.338.571-.478.25-.142.588-.213 1.015-.213.551 0 1.036.138 1.457.414.42.275.749.666.984 1.172.236.505.354 1.102.354 1.79 0 .693-.118 1.293-.354 1.802-.235.506-.562.898-.98 1.176a2.56 2.56 0 0 1-1.444.413c-.421 0-.757-.07-1.01-.208a1.867 1.867 0 0 1-.584-.482 5.954 5.954 0 0 1-.315-.452h-.086v3.46h-1.005Zm.988-5.728c0 .495.073.93.218 1.309.144.374.356.669.635.882.278.21.619.315 1.022.315.421 0 .772-.11 1.053-.332.284-.225.497-.526.639-.904a3.54 3.54 0 0 0 .217-1.27c0-.46-.071-.875-.213-1.244a1.922 1.922 0 0 0-.635-.882c-.281-.219-.635-.328-1.061-.328-.409 0-.753.103-1.031.31a1.87 1.87 0 0 0-.631.862c-.142.366-.213.794-.213 1.282Zm9.068 3.41c-.63 0-1.174-.14-1.632-.418a2.805 2.805 0 0 1-1.052-1.176c-.245-.506-.367-1.094-.367-1.765 0-.67.122-1.261.367-1.772a2.892 2.892 0 0 1 1.031-1.202c.443-.29.96-.435 1.551-.435a3.1 3.1 0 0 1 1.01.17c.332.114.635.3.908.555.272.253.49.588.652 1.005.162.418.243.932.243 1.543v.426h-5.046v-.87h4.023c0-.368-.074-.698-.222-.988a1.67 1.67 0 0 0-.622-.686 1.741 1.741 0 0 0-.946-.251c-.4 0-.747.1-1.04.298a1.974 1.974 0 0 0-.669.767 2.256 2.256 0 0 0-.234 1.014v.58c0 .494.085.913.256 1.257.173.34.413.6.72.78a2.11 2.11 0 0 0 1.069.264c.265 0 .503-.037.716-.11a1.54 1.54 0 0 0 .559-.342c.156-.153.277-.343.362-.57l.971.272c-.102.33-.274.62-.515.87a2.52 2.52 0 0 1-.895.579 3.318 3.318 0 0 1-1.198.204Zm8.877-5.217-.904.256a1.65 1.65 0 0 0-.251-.439 1.223 1.223 0 0 0-.443-.358c-.188-.093-.428-.14-.72-.14-.401 0-.735.092-1.002.277-.264.181-.396.413-.396.694 0 .25.091.448.273.593.181.144.466.265.852.362l.972.238c.585.142 1.021.36 1.308.652.287.29.43.664.43 1.121 0 .375-.108.71-.324 1.006a2.145 2.145 0 0 1-.895.699c-.383.17-.829.255-1.338.255-.667 0-1.22-.145-1.657-.434-.438-.29-.715-.713-.831-1.27l.954-.239c.091.352.263.617.516.793.256.176.589.264 1.001.264.469 0 .841-.1 1.117-.298.278-.202.417-.444.417-.725a.761.761 0 0 0-.238-.57c-.159-.157-.404-.273-.733-.35l-1.091-.256c-.6-.142-1.04-.362-1.321-.66-.279-.301-.418-.678-.418-1.13 0-.369.104-.696.311-.98.211-.284.496-.507.857-.669a3.008 3.008 0 0 1 1.236-.243c.647 0 1.156.142 1.525.426.372.285.637.66.793 1.125ZM432 30.94l3.713-3.713 1.06 1.06L433.061 32l3.712 3.712-1.06 1.06L432 33.06l-3.712 3.713-1.061-1.06L430.94 32l-3.713-3.713 1.061-1.06L432 30.939Z"/><path fill="#fff" d="M20 76h440v416H20z"/><path fill="#0E121B" d="M41.119 111v-10.182h1.536v8.86h4.614V111h-6.15Zm10.99.154c-.753 0-1.4-.161-1.944-.482a3.276 3.276 0 0 1-1.253-1.367c-.292-.59-.437-1.281-.437-2.073 0-.783.145-1.472.437-2.069a3.403 3.403 0 0 1 1.233-1.397c.53-.334 1.15-.502 1.86-.502.43 0 .848.071 1.252.214a3.04 3.04 0 0 1 1.089.671c.322.305.575.701.76 1.188.186.484.28 1.073.28 1.765v.527h-6.071v-1.113h4.613c0-.391-.08-.738-.238-1.039a1.8 1.8 0 0 0-.671-.721 1.873 1.873 0 0 0-1.005-.264c-.417 0-.782.103-1.093.308a2.077 2.077 0 0 0-.716.796 2.298 2.298 0 0 0-.249 1.059v.87c0 .51.09.944.269 1.302.182.358.435.632.76.821.325.185.705.278 1.139.278.282 0 .538-.04.77-.119a1.594 1.594 0 0 0 .99-.97l1.407.254a2.552 2.552 0 0 1-.607 1.089 2.95 2.95 0 0 1-1.089.721c-.434.169-.93.253-1.486.253Zm8.406-7.79v1.193h-4.171v-1.193h4.171Zm-3.053-1.83h1.487v7.224c0 .288.043.505.13.651a.67.67 0 0 0 .332.293c.14.05.29.075.453.075a1.7 1.7 0 0 0 .313-.025c.09-.016.16-.03.209-.04l.268 1.228a2.927 2.927 0 0 1-.965.159 2.624 2.624 0 0 1-1.093-.208 1.879 1.879 0 0 1-.82-.677c-.21-.304-.314-.687-.314-1.148v-7.532Zm8.178 1.83v1.193h-4.171v-1.193h4.171Zm-3.053-1.83h1.487v7.224c0 .288.043.505.13.651a.67.67 0 0 0 .332.293c.14.05.29.075.453.075a1.7 1.7 0 0 0 .313-.025c.09-.016.16-.03.209-.04l.268 1.228a2.927 2.927 0 0 1-.964.159 2.624 2.624 0 0 1-1.094-.208 1.878 1.878 0 0 1-.82-.677c-.21-.304-.314-.687-.314-1.148v-7.532Zm7.823 9.62c-.753 0-1.4-.161-1.944-.482a3.275 3.275 0 0 1-1.253-1.367c-.292-.59-.438-1.281-.438-2.073 0-.783.146-1.472.438-2.069a3.403 3.403 0 0 1 1.233-1.397c.53-.334 1.15-.502 1.86-.502.43 0 .848.071 1.252.214a3.04 3.04 0 0 1 1.089.671c.321.305.575.701.76 1.188.186.484.279 1.073.279 1.765v.527h-6.07v-1.113h4.613c0-.391-.08-.738-.239-1.039a1.8 1.8 0 0 0-.67-.721 1.873 1.873 0 0 0-1.005-.264c-.418 0-.782.103-1.094.308a2.077 2.077 0 0 0-.716.796 2.298 2.298 0 0 0-.248 1.059v.87c0 .51.09.944.268 1.302.183.358.436.632.761.821a2.26 2.26 0 0 0 1.138.278c.282 0 .54-.04.771-.119a1.593 1.593 0 0 0 .99-.97l1.406.254a2.553 2.553 0 0 1-.606 1.089 2.95 2.95 0 0 1-1.089.721c-.434.169-.93.253-1.486.253Zm4.84-.154v-7.636h1.437v1.213h.08a1.85 1.85 0 0 1 .735-.97 2.11 2.11 0 0 1 1.203-.358 7.159 7.159 0 0 1 .632.035v1.422a2.58 2.58 0 0 0-.318-.055 3.062 3.062 0 0 0-.458-.035c-.351 0-.664.075-.94.224a1.663 1.663 0 0 0-.884 1.497V111H75.25Zm8.527-8.859v-1.323h7.88v1.323h-3.176V111H86.95v-8.859h-3.172Zm9.483 11.723c-.222 0-.424-.019-.606-.055a1.948 1.948 0 0 1-.408-.109l.358-1.218c.272.072.513.104.726.094a.863.863 0 0 0 .561-.239c.166-.149.312-.392.438-.73l.184-.508-2.794-7.735h1.59l1.935 5.926h.08l1.933-5.926h1.596l-3.147 8.655a3.45 3.45 0 0 1-.557 1.009 2.156 2.156 0 0 1-.805.627 2.638 2.638 0 0 1-1.084.209Zm6.906 0v-10.5h1.452v1.238h.124c.086-.16.211-.343.373-.552.162-.209.388-.391.676-.547.288-.159.67-.239 1.144-.239.616 0 1.166.156 1.65.468.484.311.864.76 1.139 1.347.278.586.417 1.292.417 2.118 0 .825-.137 1.533-.412 2.123-.275.586-.653 1.039-1.134 1.357a2.933 2.933 0 0 1-1.646.472c-.464 0-.843-.078-1.138-.234a2.152 2.152 0 0 1-.686-.546 4.204 4.204 0 0 1-.383-.557h-.089v4.052h-1.487Zm1.457-6.682c0 .537.078 1.007.233 1.412.156.404.382.721.677.949.295.226.656.338 1.083.338.445 0 .816-.117 1.114-.353.298-.238.524-.561.676-.969.156-.408.234-.867.234-1.377 0-.504-.076-.956-.229-1.357a2.075 2.075 0 0 0-.676-.95c-.298-.232-.671-.348-1.119-.348-.43 0-.795.111-1.093.333-.295.222-.519.532-.672.93-.152.397-.228.862-.228 1.392Zm10.391 3.972c-.752 0-1.4-.161-1.944-.482a3.278 3.278 0 0 1-1.253-1.367c-.291-.59-.437-1.281-.437-2.073 0-.783.146-1.472.437-2.069a3.403 3.403 0 0 1 1.233-1.397c.53-.334 1.15-.502 1.86-.502.43 0 .848.071 1.252.214a3.03 3.03 0 0 1 1.089.671c.322.305.575.701.761 1.188.185.484.278 1.073.278 1.765v.527h-6.07v-1.113h4.614c0-.391-.08-.738-.239-1.039a1.801 1.801 0 0 0-.671-.721 1.874 1.874 0 0 0-1.005-.264c-.417 0-.782.103-1.093.308a2.071 2.071 0 0 0-.716.796 2.294 2.294 0 0 0-.249 1.059v.87c0 .51.09.944.269 1.302.182.358.436.632.76.821.325.185.705.278 1.139.278.282 0 .538-.04.77-.119.232-.083.433-.206.602-.368a1.6 1.6 0 0 0 .388-.602l1.407.254a2.554 2.554 0 0 1-.607 1.089 2.945 2.945 0 0 1-1.089.721c-.434.169-.929.253-1.486.253Z"/><path fill="#2597D0" d="m120.112 106.545.095-2.098-1.77 1.139-.542-.945 1.879-.959-1.879-.96.542-.944 1.77 1.138-.095-2.098h1.079l-.094 2.098 1.769-1.138.542.944-1.879.96 1.879.959-.542.945-1.769-1.139.094 2.098h-1.079Z"/><path fill="#CACFD8" fill-rule="evenodd" d="M136 112.25a6.25 6.25 0 1 0 0-12.5 6.25 6.25 0 0 0 0 12.5Zm1.116-3.041.1-.408a1.7 1.7 0 0 1-.25.083 1.154 1.154 0 0 1-.308.048c-.193 0-.328-.032-.407-.095-.079-.064-.118-.184-.118-.359a3.427 3.427 0 0 1 .119-.671l.372-1.319c.037-.121.062-.255.075-.4.014-.145.02-.246.02-.304a.866.866 0 0 0-.292-.678c-.195-.174-.473-.261-.833-.261-.2 0-.412.036-.636.107a9.312 9.312 0 0 0-.704.256l-.1.409a3.49 3.49 0 0 1 .262-.087c.101-.03.201-.045.297-.045.198 0 .331.034.401.1.069.066.104.185.104.354 0 .093-.011.197-.034.31a5.891 5.891 0 0 1-.084.361l-.374 1.324a3.983 3.983 0 0 0-.073.374 2.42 2.42 0 0 0-.022.325c0 .272.1.496.301.673.201.177.483.265.846.265.236 0 .443-.03.621-.092s.417-.152.717-.27Zm-.067-5.359a.767.767 0 0 0 .261-.587.778.778 0 0 0-.261-.59.88.88 0 0 0-.627-.244.892.892 0 0 0-.631.244.78.78 0 0 0-.263.59c0 .23.088.426.263.587a.897.897 0 0 0 .631.243.884.884 0 0 0 .627-.243Z" clip-rule="evenodd"/><g filter="url(#d)"><path fill="#fff" d="M40 128a8 8 0 0 1 8-8h384a8 8 0 0 1 8 8v20a8 8 0 0 1-8 8H48a8 8 0 0 1-8-8v-20Z"/><path stroke="#E1E4EA" d="M40.5 128a7.5 7.5 0 0 1 7.5-7.5h384a7.5 7.5 0 0 1 7.5 7.5v20a7.5 7.5 0 0 1-7.5 7.5H48a7.5 7.5 0 0 1-7.5-7.5v-20Z"/><path fill="#99A0AE" d="M51.233 143v-10.182h3.44c.796 0 1.449.136 1.96.408.51.268.887.638 1.133 1.109.245.47.367 1.005.367 1.605 0 .6-.122 1.132-.367 1.596-.246.464-.622.829-1.129 1.094-.507.262-1.155.393-1.944.393H51.91v-1.114h2.744c.544 0 .982-.079 1.313-.239.335-.159.577-.384.726-.676.152-.295.228-.646.228-1.054a2.37 2.37 0 0 0-.228-1.069 1.565 1.565 0 0 0-.731-.706c-.335-.169-.777-.253-1.328-.253h-2.167V143h-1.233Zm4.793-4.574L58.53 143H57.1l-2.465-4.574h1.392Zm7.039 4.733c-.736 0-1.37-.162-1.904-.487a3.273 3.273 0 0 1-1.229-1.372c-.285-.59-.427-1.276-.427-2.059 0-.782.142-1.471.427-2.068.289-.6.69-1.067 1.204-1.402.517-.338 1.12-.507 1.81-.507.397 0 .79.066 1.178.199.387.133.74.348 1.059.646.318.295.571.686.76 1.174.19.487.284 1.087.284 1.799v.498H60.34v-1.015h4.693a2.5 2.5 0 0 0-.258-1.153 1.943 1.943 0 0 0-.726-.8c-.312-.196-.68-.294-1.104-.294-.467 0-.871.116-1.213.348a2.291 2.291 0 0 0-.78.895 2.628 2.628 0 0 0-.274 1.183v.676c0 .577.1 1.066.299 1.467.202.398.482.701.84.91.358.205.774.308 1.248.308.308 0 .586-.043.835-.129a1.79 1.79 0 0 0 .651-.398 1.82 1.82 0 0 0 .423-.666l1.133.318a2.52 2.52 0 0 1-.601 1.014c-.282.289-.63.514-1.044.676-.415.16-.88.239-1.397.239Zm8.263-7.795v.994H67.21v-.994h4.117ZM68.444 143v-8.69c0-.438.103-.802.309-1.094a1.9 1.9 0 0 1 .8-.656 2.527 2.527 0 0 1 1.04-.219 2.709 2.709 0 0 1 1.113.199l-.338 1.014a5.763 5.763 0 0 0-.249-.075 1.545 1.545 0 0 0-.408-.044c-.387 0-.667.097-.84.293-.169.196-.253.482-.253.86V143h-1.174Zm7.331.159c-.735 0-1.37-.162-1.904-.487a3.273 3.273 0 0 1-1.228-1.372c-.285-.59-.427-1.276-.427-2.059 0-.782.142-1.471.427-2.068.289-.6.69-1.067 1.204-1.402.517-.338 1.12-.507 1.81-.507.397 0 .79.066 1.178.199.387.133.74.348 1.058.646.319.295.572.686.761 1.174.189.487.284 1.087.284 1.799v.498H73.05v-1.015h4.693a2.5 2.5 0 0 0-.258-1.153 1.943 1.943 0 0 0-.726-.8c-.312-.196-.68-.294-1.104-.294-.467 0-.872.116-1.213.348a2.291 2.291 0 0 0-.78.895 2.628 2.628 0 0 0-.274 1.183v.676c0 .577.1 1.066.299 1.467.202.398.482.701.84.91.358.205.774.308 1.247.308.309 0 .587-.043.836-.129a1.79 1.79 0 0 0 .651-.398 1.82 1.82 0 0 0 .423-.666l1.133.318a2.52 2.52 0 0 1-.601 1.014c-.282.289-.63.514-1.044.676-.415.16-.88.239-1.398.239Zm4.863-.159v-7.636h1.134v1.153h.08c.138-.378.39-.684.755-.92a2.227 2.227 0 0 1 1.233-.353c.086 0 .194.002.323.005a5.3 5.3 0 0 1 .293.015v1.193a3.65 3.65 0 0 0-.273-.044 2.606 2.606 0 0 0-.443-.035c-.37 0-.702.078-.994.234a1.758 1.758 0 0 0-.686.636 1.714 1.714 0 0 0-.249.92V143h-1.173Zm5.125 0v-7.636h1.134v1.153h.08c.138-.378.39-.684.755-.92a2.227 2.227 0 0 1 1.233-.353c.086 0 .194.002.323.005a5.3 5.3 0 0 1 .293.015v1.193c-.04-.01-.13-.024-.273-.044a2.606 2.606 0 0 0-.443-.035c-.37 0-.702.078-.994.234a1.756 1.756 0 0 0-.686.636 1.714 1.714 0 0 0-.249.92V143h-1.173Zm7.372.179c-.484 0-.923-.091-1.317-.273a2.265 2.265 0 0 1-.94-.801c-.232-.351-.348-.775-.348-1.273 0-.437.086-.792.259-1.064a1.83 1.83 0 0 1 .69-.646 3.64 3.64 0 0 1 .955-.348c.352-.079.705-.142 1.06-.189.463-.059.84-.104 1.128-.134.292-.033.504-.088.636-.164.136-.076.204-.209.204-.398v-.04c0-.49-.134-.871-.403-1.143-.265-.272-.668-.408-1.208-.408-.56 0-.999.123-1.317.368-.318.245-.542.507-.671.786l-1.114-.398c.199-.464.464-.825.796-1.084a2.977 2.977 0 0 1 1.093-.547 4.543 4.543 0 0 1 1.173-.159c.246 0 .527.03.846.09.321.056.631.174.93.353.301.179.551.449.75.81.199.361.298.845.298 1.452V143h-1.173v-1.034h-.06c-.08.166-.212.343-.397.532-.186.189-.433.35-.741.482-.308.133-.684.199-1.129.199Zm.18-1.054c.463 0 .855-.091 1.173-.273a1.87 1.87 0 0 0 .725-.706 1.8 1.8 0 0 0 .25-.91v-1.074c-.05.06-.16.114-.329.164a5.532 5.532 0 0 1-.577.124c-.215.033-.426.063-.631.09-.202.023-.366.043-.492.059-.305.04-.59.105-.855.194a1.47 1.47 0 0 0-.637.393c-.159.172-.238.408-.238.706 0 .408.15.716.452.925.305.205.691.308 1.158.308Zm6.551-9.307V143h-1.173v-10.182h1.173Zm9.24 2.546v.994h-3.958v-.994h3.958Zm-2.804-1.83h1.173v7.278c0 .332.048.581.144.746.1.163.226.272.378.328.156.053.32.08.492.08.129 0 .236-.007.318-.02l.199-.04.239 1.054a2.469 2.469 0 0 1-.875.139c-.332 0-.656-.071-.975-.213a1.944 1.944 0 0 1-.785-.652c-.206-.291-.308-.659-.308-1.103v-7.597Zm7.505 9.625c-.69 0-1.294-.164-1.815-.492a3.345 3.345 0 0 1-1.213-1.377c-.288-.59-.432-1.28-.432-2.068 0-.796.144-1.49.432-2.084a3.347 3.347 0 0 1 1.213-1.382c.521-.328 1.125-.492 1.815-.492.689 0 1.292.164 1.809.492a3.3 3.3 0 0 1 1.214 1.382c.291.594.437 1.288.437 2.084 0 .788-.146 1.478-.437 2.068a3.299 3.299 0 0 1-1.214 1.377c-.517.328-1.12.492-1.809.492Zm0-1.054c.524 0 .954-.134 1.292-.403a2.36 2.36 0 0 0 .751-1.059c.163-.437.244-.911.244-1.421 0-.511-.081-.986-.244-1.427a2.395 2.395 0 0 0-.751-1.069c-.338-.272-.768-.408-1.292-.408s-.955.136-1.293.408a2.401 2.401 0 0 0-.75 1.069 4.081 4.081 0 0 0-.244 1.427c0 .51.081.984.244 1.421.162.438.412.791.75 1.059.338.269.769.403 1.293.403Zm14.43-5.031-1.054.298a1.959 1.959 0 0 0-.294-.512 1.43 1.43 0 0 0-.517-.418c-.218-.109-.498-.164-.84-.164-.467 0-.857.108-1.168.324-.308.212-.463.482-.463.81 0 .292.107.522.319.691.212.169.543.31.994.423l1.133.278c.683.166 1.192.419 1.527.761.334.338.502.774.502 1.307 0 .438-.126.829-.378 1.173-.249.345-.597.617-1.044.816-.447.199-.968.298-1.561.298-.779 0-1.424-.169-1.934-.507-.51-.338-.834-.832-.969-1.482l1.113-.278c.106.411.307.719.602.925.298.205.687.308 1.168.308.547 0 .981-.116 1.303-.348.324-.235.487-.517.487-.845a.887.887 0 0 0-.279-.666c-.185-.183-.47-.319-.855-.408l-1.272-.298c-.7-.166-1.214-.423-1.542-.771-.324-.351-.487-.79-.487-1.317 0-.431.121-.812.363-1.144a2.47 2.47 0 0 1 .999-.78 3.511 3.511 0 0 1 1.442-.284c.756 0 1.349.166 1.78.497.434.332.742.769.925 1.313Zm1.821 8.79v-10.5h1.134v1.213h.139c.086-.133.205-.302.358-.507.155-.209.378-.395.666-.557.292-.166.686-.249 1.183-.249.643 0 1.21.161 1.7.482.491.322.874.778 1.149 1.368.275.59.413 1.286.413 2.088 0 .808-.138 1.509-.413 2.103-.275.59-.656 1.047-1.144 1.372-.487.321-1.049.482-1.685.482-.49 0-.883-.081-1.178-.244a2.182 2.182 0 0 1-.681-.561 7.523 7.523 0 0 1-.368-.527h-.1v4.037h-1.173Zm1.153-6.682c0 .577.085 1.085.254 1.526.169.438.416.781.741 1.029.325.245.722.368 1.193.368.49 0 .9-.129 1.228-.388.331-.262.58-.613.746-1.054.169-.444.253-.938.253-1.481 0-.537-.083-1.021-.248-1.452a2.252 2.252 0 0 0-.741-1.029c-.328-.255-.741-.383-1.238-.383-.477 0-.878.121-1.203.363-.325.239-.57.573-.736 1.004-.166.428-.249.927-.249 1.497Zm10.496 3.977c-.736 0-1.371-.162-1.904-.487a3.273 3.273 0 0 1-1.228-1.372c-.285-.59-.428-1.276-.428-2.059 0-.782.143-1.471.428-2.068.288-.6.689-1.067 1.203-1.402.517-.338 1.12-.507 1.81-.507.397 0 .79.066 1.178.199.388.133.741.348 1.059.646.318.295.572.686.761 1.174.188.487.283 1.087.283 1.799v.498h-5.886v-1.015h4.693c0-.431-.086-.815-.259-1.153a1.943 1.943 0 0 0-.726-.8c-.311-.196-.679-.294-1.103-.294-.468 0-.872.116-1.213.348a2.29 2.29 0 0 0-.781.895 2.632 2.632 0 0 0-.273 1.183v.676c0 .577.099 1.066.298 1.467.202.398.482.701.84.91.358.205.774.308 1.248.308.308 0 .587-.043.835-.129.252-.09.469-.222.651-.398.183-.179.324-.401.423-.666l1.134.318a2.51 2.51 0 0 1-.602 1.014c-.282.289-.63.514-1.044.676-.414.16-.88.239-1.397.239Zm7.965 0c-.716 0-1.332-.169-1.849-.507a3.312 3.312 0 0 1-1.194-1.397c-.278-.593-.417-1.271-.417-2.033 0-.776.142-1.46.427-2.054a3.394 3.394 0 0 1 1.203-1.397c.517-.338 1.121-.507 1.81-.507.537 0 1.021.1 1.452.298.431.199.784.478 1.059.836a2.6 2.6 0 0 1 .512 1.253h-1.173a1.824 1.824 0 0 0-.597-.925c-.305-.272-.716-.408-1.233-.408a2.06 2.06 0 0 0-1.203.358c-.342.235-.608.569-.801.999-.188.428-.283.93-.283 1.507 0 .59.093 1.104.278 1.541.189.438.455.777.796 1.019.345.242.749.363 1.213.363.305 0 .582-.053.83-.159.249-.106.459-.258.632-.457.172-.199.295-.438.368-.716h1.173a2.73 2.73 0 0 1-.492 1.218 2.756 2.756 0 0 1-1.029.855c-.425.209-.919.313-1.482.313Zm4.634-.159v-7.636h1.173V143h-1.173Zm.597-8.909a.834.834 0 0 1-.592-.234.753.753 0 0 1-.244-.562.75.75 0 0 1 .244-.561.834.834 0 0 1 .592-.234c.228 0 .424.078.586.234a.741.741 0 0 1 .249.561.744.744 0 0 1-.249.562.815.815 0 0 1-.586.234Zm4.888 9.088c-.483 0-.923-.091-1.317-.273a2.269 2.269 0 0 1-.94-.801c-.232-.351-.348-.775-.348-1.273 0-.437.087-.792.259-1.064.172-.275.403-.49.691-.646.288-.156.606-.272.954-.348.352-.079.705-.142 1.059-.189.464-.059.841-.104 1.129-.134.292-.033.504-.088.636-.164.136-.076.204-.209.204-.398v-.04c0-.49-.134-.871-.403-1.143-.265-.272-.667-.408-1.208-.408-.56 0-.999.123-1.317.368-.318.245-.542.507-.671.786l-1.114-.398c.199-.464.464-.825.796-1.084a2.977 2.977 0 0 1 1.093-.547 4.547 4.547 0 0 1 1.174-.159c.245 0 .527.03.845.09.321.056.631.174.929.353.302.179.552.449.751.81.199.361.298.845.298 1.452V143h-1.173v-1.034h-.059c-.08.166-.213.343-.398.532-.186.189-.433.35-.741.482-.308.133-.684.199-1.129.199Zm.179-1.054c.464 0 .856-.091 1.174-.273.321-.183.563-.418.726-.706.165-.289.248-.592.248-.91v-1.074c-.05.06-.159.114-.328.164a5.534 5.534 0 0 1-.577.124c-.215.033-.426.063-.631.09-.202.023-.366.043-.492.059-.305.04-.59.105-.855.194a1.475 1.475 0 0 0-.637.393c-.159.172-.238.408-.238.706 0 .408.15.716.452.925.305.205.691.308 1.158.308Zm6.552-9.307V143h-1.173v-10.182h1.173ZM168.587 143v-7.636h1.174V143h-1.174Zm.597-8.909a.834.834 0 0 1-.592-.234.752.752 0 0 1-.243-.562.75.75 0 0 1 .243-.561.834.834 0 0 1 .592-.234c.229 0 .424.078.586.234a.741.741 0 0 1 .249.561.744.744 0 0 1-.249.562.814.814 0 0 1-.586.234Zm8.051 2.983-1.054.298a1.959 1.959 0 0 0-.294-.512 1.43 1.43 0 0 0-.517-.418c-.219-.109-.499-.164-.84-.164-.467 0-.857.108-1.168.324-.309.212-.463.482-.463.81 0 .292.106.522.319.691.212.169.543.31.994.423l1.133.278c.683.166 1.192.419 1.527.761.334.338.502.774.502 1.307 0 .438-.126.829-.378 1.173-.249.345-.597.617-1.044.816-.448.199-.968.298-1.561.298-.779 0-1.424-.169-1.934-.507-.511-.338-.834-.832-.97-1.482l1.114-.278c.106.411.307.719.602.925.298.205.687.308 1.168.308.547 0 .981-.116 1.303-.348.324-.235.487-.517.487-.845a.887.887 0 0 0-.279-.666c-.185-.183-.47-.319-.855-.408l-1.273-.298c-.699-.166-1.213-.423-1.541-.771-.325-.351-.487-.79-.487-1.317 0-.431.121-.812.363-1.144a2.47 2.47 0 0 1 .999-.78 3.511 3.511 0 0 1 1.442-.284c.756 0 1.349.166 1.78.497.434.332.742.769.925 1.313Zm5.142-1.71v.994h-3.957v-.994h3.957Zm-2.804-1.83h1.173v7.278c0 .332.048.581.144.746.1.163.226.272.378.328.156.053.32.08.493.08.129 0 .235-.007.318-.02l.199-.04.238 1.054c-.079.03-.19.06-.333.09a2.463 2.463 0 0 1-.542.049c-.331 0-.656-.071-.974-.213a1.94 1.94 0 0 1-.786-.652c-.205-.291-.308-.659-.308-1.103v-7.597Z"/></g><path fill="#0E121B" d="M47.666 180.818h1.541v6.697c0 .713-.167 1.344-.502 1.894a3.51 3.51 0 0 1-1.412 1.293c-.606.311-1.317.467-2.133.467-.811 0-1.52-.156-2.127-.467a3.51 3.51 0 0 1-1.412-1.293c-.335-.55-.502-1.181-.502-1.894v-6.697h1.536v6.573c0 .46.1.87.303 1.228.206.358.496.639.87.845.375.202.819.303 1.332.303.518 0 .963-.101 1.338-.303.378-.206.666-.487.865-.845.202-.358.303-.768.303-1.228v-6.573Zm3.572 13.046v-10.5h1.451v1.238h.125a4.1 4.1 0 0 1 .372-.552 2.11 2.11 0 0 1 .677-.547c.288-.159.67-.239 1.143-.239a2.98 2.98 0 0 1 1.65.468c.485.311.864.76 1.14 1.347.278.586.417 1.292.417 2.118 0 .825-.138 1.533-.413 2.123-.275.586-.653 1.039-1.133 1.357a2.937 2.937 0 0 1-1.646.472c-.464 0-.844-.078-1.139-.234a2.153 2.153 0 0 1-.686-.546 4.162 4.162 0 0 1-.382-.557h-.09v4.052h-1.486Zm1.456-6.682c0 .537.078 1.007.234 1.412.156.404.381.721.676.949.295.226.656.338 1.084.338.444 0 .815-.117 1.113-.353.299-.238.524-.561.677-.969.155-.408.233-.867.233-1.377 0-.504-.076-.956-.228-1.357a2.08 2.08 0 0 0-.677-.95c-.298-.232-.67-.348-1.118-.348-.431 0-.796.111-1.094.333-.295.222-.519.532-.671.93-.153.397-.229.862-.229 1.392Zm8.587-6.364V191h-1.487v-10.182h1.487Zm5.132 10.336c-.716 0-1.34-.164-1.874-.492a3.318 3.318 0 0 1-1.243-1.377c-.295-.59-.443-1.28-.443-2.068 0-.793.148-1.485.443-2.079a3.32 3.32 0 0 1 1.243-1.382c.534-.328 1.158-.492 1.874-.492.716 0 1.34.164 1.874.492a3.32 3.32 0 0 1 1.243 1.382c.295.594.443 1.286.443 2.079 0 .788-.148 1.478-.443 2.068a3.318 3.318 0 0 1-1.243 1.377c-.533.328-1.158.492-1.874.492Zm.005-1.248c.464 0 .849-.122 1.153-.368.305-.245.53-.571.677-.979a3.9 3.9 0 0 0 .223-1.347 3.88 3.88 0 0 0-.223-1.343 2.188 2.188 0 0 0-.677-.989c-.304-.249-.689-.373-1.153-.373-.467 0-.855.124-1.163.373a2.223 2.223 0 0 0-.681.989 3.963 3.963 0 0 0-.22 1.343c0 .49.074.939.22 1.347.149.408.376.734.68.979.309.246.697.368 1.164.368Zm7.352 1.263c-.483 0-.921-.089-1.312-.268a2.215 2.215 0 0 1-.93-.791c-.225-.345-.338-.767-.338-1.268 0-.431.083-.785.249-1.064.165-.278.39-.498.67-.661.283-.162.597-.285.945-.368a9.344 9.344 0 0 1 1.064-.189l1.114-.129c.285-.036.492-.094.621-.174.13-.079.194-.209.194-.388v-.034c0-.435-.122-.771-.368-1.01-.242-.238-.603-.358-1.083-.358-.5 0-.895.111-1.184.333-.285.219-.482.463-.591.731l-1.397-.318c.165-.464.407-.838.726-1.124a2.945 2.945 0 0 1 1.108-.626 4.315 4.315 0 0 1 1.318-.199c.305 0 .628.037.97.11.344.069.665.198.964.387.301.189.548.459.74.811.193.348.289.8.289 1.357V191h-1.452v-1.044h-.06c-.096.192-.24.381-.432.567-.192.185-.44.339-.74.462-.302.123-.664.184-1.085.184Zm.324-1.193c.41 0 .762-.081 1.053-.244a1.7 1.7 0 0 0 .672-.636c.155-.265.233-.549.233-.85v-.985c-.053.053-.156.103-.308.15a4.79 4.79 0 0 1-.512.114c-.192.03-.38.058-.562.084l-.457.06a3.67 3.67 0 0 0-.79.184 1.35 1.35 0 0 0-.567.373c-.14.159-.21.371-.21.636 0 .368.137.647.408.835.272.186.619.279 1.04.279Zm8.2 1.173a2.958 2.958 0 0 1-1.651-.472c-.48-.318-.859-.771-1.134-1.357-.271-.59-.407-1.298-.407-2.123 0-.826.137-1.532.412-2.118.279-.587.66-1.036 1.144-1.347a2.97 2.97 0 0 1 1.645-.468c.474 0 .856.08 1.144.239.291.156.517.338.676.547.162.209.288.392.378.552h.09v-3.784h1.486V191h-1.452v-1.188h-.124a4.02 4.02 0 0 1-.388.557 2.153 2.153 0 0 1-.686.546c-.292.156-.67.234-1.134.234Zm.328-1.268c.427 0 .788-.112 1.083-.338.299-.228.524-.545.677-.949.155-.405.233-.875.233-1.412 0-.53-.076-.995-.228-1.392-.153-.398-.377-.708-.672-.93-.295-.222-.66-.333-1.093-.333-.448 0-.82.116-1.12.348a2.129 2.129 0 0 0-.675.95c-.15.401-.224.853-.224 1.357 0 .51.076.969.229 1.377.152.408.378.731.676.969.302.236.673.353 1.114.353Zm14.786-6.388a1.453 1.453 0 0 0-.656-1.094c-.385-.262-.868-.393-1.452-.393-.418 0-.779.067-1.084.199-.305.13-.542.308-.71.537a1.269 1.269 0 0 0-.25.771c0 .242.057.451.17.626.116.176.267.323.452.443.19.116.391.213.607.293.215.076.422.139.621.189l.995.258c.324.08.657.188.999.324.341.135.658.314.95.537.291.222.526.497.705.825.183.328.274.721.274 1.178 0 .577-.15 1.089-.448 1.536-.295.448-.724.801-1.287 1.059-.56.259-1.238.388-2.034.388-.762 0-1.422-.121-1.978-.363-.557-.242-.993-.585-1.308-1.029-.315-.447-.489-.978-.522-1.591h1.541c.03.368.15.675.358.92.212.242.483.422.81.542.332.116.695.174 1.09.174.434 0 .82-.068 1.158-.204a1.94 1.94 0 0 0 .805-.577c.196-.248.293-.538.293-.87 0-.301-.086-.548-.258-.741a1.913 1.913 0 0 0-.691-.477 6.736 6.736 0 0 0-.98-.333l-1.203-.328c-.815-.222-1.461-.549-1.939-.98-.474-.43-.71-1-.71-1.71 0-.586.159-1.098.477-1.536a3.136 3.136 0 0 1 1.293-1.019c.543-.245 1.156-.368 1.839-.368.69 0 1.297.121 1.825.363.53.242.947.575 1.252.999.305.421.464.905.478 1.452h-1.482Zm5.476 7.676a3.12 3.12 0 0 1-1.313-.268 2.218 2.218 0 0 1-.93-.791c-.225-.345-.338-.767-.338-1.268 0-.431.083-.785.249-1.064.166-.278.389-.498.671-.661a3.53 3.53 0 0 1 .945-.368 9.313 9.313 0 0 1 1.064-.189l1.113-.129c.285-.036.492-.094.622-.174.129-.079.194-.209.194-.388v-.034c0-.435-.123-.771-.368-1.01-.242-.238-.604-.358-1.084-.358-.501 0-.895.111-1.183.333-.285.219-.483.463-.592.731l-1.397-.318c.166-.464.408-.838.726-1.124a2.939 2.939 0 0 1 1.109-.626 4.308 4.308 0 0 1 1.317-.199c.305 0 .628.037.969.11.345.069.667.198.965.387.302.189.548.459.741.811.192.348.288.8.288 1.357V191H105.2v-1.044h-.059a2.13 2.13 0 0 1-.433.567 2.308 2.308 0 0 1-.741.462c-.301.123-.662.184-1.083.184Zm.323-1.193c.411 0 .762-.081 1.054-.244.295-.162.518-.374.671-.636a1.65 1.65 0 0 0 .234-.85v-.985c-.053.053-.156.103-.309.15-.149.043-.32.081-.512.114-.192.03-.379.058-.562.084l-.457.06a3.66 3.66 0 0 0-.79.184c-.236.086-.425.21-.567.373-.139.159-.209.371-.209.636 0 .368.136.647.408.835.271.186.618.279 1.039.279Zm5.341 1.024v-7.636h1.427v1.243h.094c.159-.421.42-.75.781-.985.361-.238.794-.358 1.297-.358.511 0 .938.12 1.283.358.348.239.605.567.771.985h.079c.183-.408.473-.733.87-.975.398-.245.872-.368 1.422-.368.693 0 1.258.217 1.695.651.441.435.662 1.089.662 1.964V191h-1.487v-4.982c0-.517-.141-.891-.422-1.123a1.54 1.54 0 0 0-1.01-.348c-.484 0-.86.149-1.128.447-.269.295-.403.675-.403 1.139V191h-1.481v-5.076c0-.414-.13-.747-.388-.999-.259-.252-.595-.378-1.009-.378a1.44 1.44 0 0 0-.781.224 1.638 1.638 0 0 0-.572.611 1.88 1.88 0 0 0-.214.91V191h-1.486Zm12.289 2.864v-10.5h1.452v1.238h.124c.086-.16.21-.343.373-.552.162-.209.388-.391.676-.547.288-.159.67-.239 1.143-.239a2.98 2.98 0 0 1 1.651.468c.484.311.863.76 1.139 1.347.278.586.417 1.292.417 2.118 0 .825-.137 1.533-.412 2.123-.276.586-.653 1.039-1.134 1.357a2.935 2.935 0 0 1-1.646.472c-.464 0-.843-.078-1.138-.234a2.152 2.152 0 0 1-.686-.546 4.204 4.204 0 0 1-.383-.557h-.089v4.052h-1.487Zm1.457-6.682c0 .537.078 1.007.233 1.412.156.404.382.721.677.949.294.226.656.338 1.083.338.444 0 .816-.117 1.114-.353.298-.238.524-.561.676-.969.156-.408.234-.867.234-1.377 0-.504-.076-.956-.229-1.357a2.075 2.075 0 0 0-.676-.95c-.298-.232-.671-.348-1.119-.348-.431 0-.795.111-1.093.333-.295.222-.519.532-.672.93-.152.397-.228.862-.228 1.392Zm8.586-6.364V191h-1.486v-10.182h1.486Zm5.207 10.336c-.752 0-1.4-.161-1.944-.482a3.278 3.278 0 0 1-1.253-1.367c-.291-.59-.437-1.281-.437-2.073 0-.783.146-1.472.437-2.069a3.403 3.403 0 0 1 1.233-1.397c.531-.334 1.15-.502 1.86-.502.431 0 .848.071 1.253.214.404.143.767.366 1.088.671.322.305.575.701.761 1.188.186.484.278 1.073.278 1.765v.527h-6.07v-1.113h4.614c0-.391-.08-.738-.239-1.039a1.801 1.801 0 0 0-.671-.721 1.873 1.873 0 0 0-1.004-.264c-.418 0-.782.103-1.094.308a2.079 2.079 0 0 0-.716.796 2.294 2.294 0 0 0-.249 1.059v.87c0 .51.09.944.269 1.302.182.358.436.632.761.821.324.185.704.278 1.138.278.282 0 .539-.04.771-.119a1.589 1.589 0 0 0 .989-.97l1.407.254a2.554 2.554 0 0 1-.607 1.089 2.949 2.949 0 0 1-1.088.721c-.435.169-.93.253-1.487.253Zm8.582-.154v-10.182h1.536v8.86h4.614V191h-6.15Zm10.99.154c-.752 0-1.4-.161-1.944-.482a3.275 3.275 0 0 1-1.252-1.367c-.292-.59-.438-1.281-.438-2.073 0-.783.146-1.472.438-2.069a3.403 3.403 0 0 1 1.233-1.397c.53-.334 1.15-.502 1.859-.502.431 0 .848.071 1.253.214.404.143.767.366 1.089.671.321.305.575.701.76 1.188.186.484.279 1.073.279 1.765v.527h-6.071v-1.113h4.614c0-.391-.08-.738-.239-1.039a1.794 1.794 0 0 0-.671-.721 1.873 1.873 0 0 0-1.004-.264c-.418 0-.782.103-1.094.308a2.079 2.079 0 0 0-.716.796 2.306 2.306 0 0 0-.248 1.059v.87c0 .51.089.944.268 1.302.182.358.436.632.761.821a2.26 2.26 0 0 0 1.138.278c.282 0 .539-.04.771-.119a1.589 1.589 0 0 0 .989-.97l1.407.254a2.552 2.552 0 0 1-.606 1.089 2.961 2.961 0 0 1-1.089.721c-.434.169-.93.253-1.487.253Zm8.407-7.79v1.193h-4.172v-1.193h4.172Zm-3.053-1.83h1.487v7.224c0 .288.043.505.129.651a.67.67 0 0 0 .333.293c.139.05.29.075.452.075.12 0 .224-.008.314-.025.089-.016.159-.03.208-.04l.269 1.228a2.928 2.928 0 0 1-.965.159 2.62 2.62 0 0 1-1.093-.208 1.882 1.882 0 0 1-.821-.677c-.209-.304-.313-.687-.313-1.148v-7.532Zm8.178 1.83v1.193h-4.172v-1.193h4.172Zm-3.053-1.83h1.487v7.224c0 .288.043.505.129.651a.67.67 0 0 0 .333.293c.139.05.29.075.452.075.12 0 .224-.008.314-.025.089-.016.159-.03.208-.04l.269 1.228a2.928 2.928 0 0 1-.965.159 2.62 2.62 0 0 1-1.093-.208 1.882 1.882 0 0 1-.821-.677c-.209-.304-.313-.687-.313-1.148v-7.532Zm7.822 9.62c-.752 0-1.4-.161-1.944-.482a3.278 3.278 0 0 1-1.253-1.367c-.291-.59-.437-1.281-.437-2.073 0-.783.146-1.472.437-2.069a3.403 3.403 0 0 1 1.233-1.397c.531-.334 1.15-.502 1.86-.502.431 0 .848.071 1.253.214.404.143.767.366 1.088.671.322.305.575.701.761 1.188.186.484.278 1.073.278 1.765v.527h-6.07v-1.113h4.614c0-.391-.08-.738-.239-1.039a1.801 1.801 0 0 0-.671-.721 1.873 1.873 0 0 0-1.004-.264c-.418 0-.783.103-1.094.308a2.079 2.079 0 0 0-.716.796 2.294 2.294 0 0 0-.249 1.059v.87c0 .51.09.944.269 1.302.182.358.436.632.761.821.324.185.704.278 1.138.278.282 0 .539-.04.771-.119a1.6 1.6 0 0 0 .989-.97l1.407.254a2.554 2.554 0 0 1-.607 1.089 2.949 2.949 0 0 1-1.088.721c-.435.169-.93.253-1.487.253Zm4.842-.154v-7.636h1.437v1.213h.079a1.85 1.85 0 0 1 .736-.97 2.112 2.112 0 0 1 1.203-.358 7.15 7.15 0 0 1 .631.035v1.422a2.536 2.536 0 0 0-.318-.055 3.058 3.058 0 0 0-.457-.035 1.94 1.94 0 0 0-.94.224 1.66 1.66 0 0 0-.885 1.497V191h-1.486Zm11.011-5.772-1.347.239a1.603 1.603 0 0 0-.269-.493 1.322 1.322 0 0 0-.487-.382c-.205-.1-.462-.15-.77-.15-.421 0-.773.095-1.054.284-.282.185-.423.426-.423.721 0 .255.094.46.283.616.189.156.494.284.915.383l1.213.278c.703.163 1.226.413 1.571.751s.517.777.517 1.318c0 .457-.132.865-.397 1.223-.262.354-.629.633-1.099.835-.468.202-1.009.303-1.626.303-.855 0-1.553-.182-2.093-.547-.54-.368-.872-.89-.994-1.566l1.437-.219c.089.375.273.658.551.851.279.189.642.283 1.089.283.487 0 .877-.101 1.168-.303.292-.206.438-.456.438-.751a.782.782 0 0 0-.269-.602c-.175-.162-.445-.285-.81-.367l-1.292-.284c-.713-.162-1.24-.421-1.581-.775-.339-.355-.508-.804-.508-1.348 0-.45.126-.845.378-1.183.252-.338.6-.602 1.044-.79.444-.193.953-.289 1.527-.289.825 0 1.474.179 1.948.537.474.355.788.83.94 1.427Z"/><path fill="#2597D0" d="m195.112 186.545.095-2.098-1.77 1.139-.542-.945 1.879-.959-1.879-.96.542-.944 1.77 1.138-.095-2.098h1.079l-.094 2.098 1.769-1.138.542.944-1.879.96 1.879.959-.542.945-1.769-1.139.094 2.098h-1.079Z"/><path fill="#CACFD8" fill-rule="evenodd" d="M211 192.25a6.25 6.25 0 1 0 0-12.5 6.25 6.25 0 0 0 0 12.5Zm1.116-3.041.1-.408a1.7 1.7 0 0 1-.25.083 1.154 1.154 0 0 1-.308.048c-.193 0-.328-.032-.407-.095-.079-.064-.118-.184-.118-.359a3.427 3.427 0 0 1 .119-.671l.372-1.319c.037-.121.062-.255.075-.4.014-.145.02-.246.02-.304a.866.866 0 0 0-.292-.678c-.195-.174-.473-.261-.833-.261-.2 0-.412.036-.636.107a9.312 9.312 0 0 0-.704.256l-.1.409a3.49 3.49 0 0 1 .262-.087c.101-.03.201-.045.297-.045.198 0 .331.034.401.1.069.066.104.185.104.354 0 .093-.011.197-.034.31a5.891 5.891 0 0 1-.084.361l-.374 1.324a3.983 3.983 0 0 0-.073.374 2.42 2.42 0 0 0-.022.325c0 .272.1.496.301.673.201.177.483.265.846.265.236 0 .443-.03.621-.092s.417-.152.717-.27Zm-.067-5.359a.767.767 0 0 0 .261-.587.778.778 0 0 0-.261-.59.88.88 0 0 0-.627-.244.892.892 0 0 0-.631.244.78.78 0 0 0-.263.59c0 .23.088.426.263.587a.897.897 0 0 0 .631.243.884.884 0 0 0 .627-.243Z" clip-rule="evenodd"/><path fill="#fff" d="M42.021 374.667a11.931 11.931 0 0 1-1.793-4.325l.49-.097A11.556 11.556 0 0 1 40.5 368v-2.438H40v-4.874h.5v-4.876H40v-4.874h.5v-4.876H40v-4.874h.5v-4.876H40v-4.874h.5v-4.876H40v-4.874h.5v-4.876H40v-4.874h.5v-4.876H40v-4.874h.5v-4.876H40v-4.874h.5v-4.876H40v-4.874h.5v-4.876H40v-4.874h.5v-4.876H40v-4.874h.5v-4.876H40v-4.874h.5v-4.876H40v-4.874h.5v-4.876H40v-4.874h.5v-4.876H40v-4.874h.5v-4.876H40v-4.875h.5V212c0-.769.075-1.519.219-2.245l-.49-.097c.31-1.574.93-3.038 1.792-4.325l.416.278a11.546 11.546 0 0 1 3.174-3.174l-.278-.416a11.942 11.942 0 0 1 4.325-1.793l.097.491A11.524 11.524 0 0 1 52 200.5h2.474v-.5h4.947v.5h4.947v-.5h4.948v.5h4.947v-.5h4.948v.5h4.947v-.5h4.947v.5h4.948v-.5H99v.5h4.947v-.5h4.948v.5h4.947v-.5h4.947v.5h4.948v-.5h4.947v.5h4.947v-.5h4.948v.5h4.947v-.5h4.948v.5h4.947v-.5h4.947v.5h4.948v-.5h4.947v.5h4.947v-.5h4.948v.5h4.947v-.5h4.947v.5H193v-.5h4.947v.5h4.948v-.5h4.947v.5h4.947v-.5h4.948v.5h4.947v-.5h4.947v.5h4.948v-.5h4.947v.5h4.948v-.5h4.947v.5h4.947v-.5h4.948v.5h4.947v-.5h4.947v.5h4.948v-.5h4.947v.5h4.948v-.5H287v.5h4.947v-.5h4.948v.5h4.947v-.5h4.947v.5h4.948v-.5h4.947v.5h4.948v-.5h4.947v.5h4.947v-.5h4.948v.5h4.947v-.5h4.947v.5h4.948v-.5h4.947v.5h4.948v-.5h4.947v.5h4.947v-.5h4.948v.5H381v-.5h4.947v.5h4.948v-.5h4.947v.5h4.947v-.5h4.948v.5h4.947v-.5h4.948v.5h4.947v-.5h4.947v.5H428c.769 0 1.519.075 2.245.219l.097-.491c1.574.312 3.038.931 4.325 1.793l-.278.416a11.526 11.526 0 0 1 3.174 3.174l.416-.278a11.939 11.939 0 0 1 1.793 4.325l-.491.097c.144.726.219 1.476.219 2.245v2.438h.5v4.874h-.5v4.876h.5v4.874h-.5v4.876h.5v4.874h-.5v4.876h.5v4.874h-.5v4.876h.5v4.874h-.5v4.876h.5v4.874h-.5v4.876h.5v4.874h-.5v4.876h.5v4.874h-.5v4.876h.5v4.874h-.5v4.876h.5v4.874h-.5v4.876h.5v4.874h-.5v4.876h.5v4.874h-.5v4.876h.5v4.874h-.5v4.876h.5v4.874h-.5v4.876h.5v4.874h-.5v4.876h.5v4.874h-.5V368c0 .769-.075 1.519-.219 2.245l.491.097a11.939 11.939 0 0 1-1.793 4.325l-.416-.278a11.526 11.526 0 0 1-3.174 3.174l.278.416a11.939 11.939 0 0 1-4.325 1.793l-.097-.491c-.726.144-1.476.219-2.245.219h-2.474v.5h-4.947v-.5h-4.947v.5h-4.948v-.5h-4.947v.5h-4.948v-.5h-4.947v.5h-4.947v-.5h-4.948v.5H381v-.5h-4.947v.5h-4.948v-.5h-4.947v.5h-4.947v-.5h-4.948v.5h-4.947v-.5h-4.948v.5h-4.947v-.5h-4.947v.5h-4.948v-.5h-4.947v.5h-4.947v-.5h-4.948v.5h-4.947v-.5h-4.947v.5h-4.948v-.5h-4.947v.5h-4.947v-.5H287v.5h-4.947v-.5h-4.948v.5h-4.947v-.5h-4.947v.5h-4.948v-.5h-4.947v.5h-4.947v-.5h-4.948v.5h-4.947v-.5h-4.948v.5h-4.947v-.5h-4.947v.5h-4.948v-.5h-4.947v.5h-4.947v-.5h-4.948v.5h-4.947v-.5h-4.948v.5H193v-.5h-4.947v.5h-4.948v-.5h-4.947v.5h-4.947v-.5h-4.948v.5h-4.947v-.5h-4.948v.5h-4.947v-.5h-4.947v.5h-4.948v-.5h-4.947v.5h-4.947v-.5h-4.948v.5h-4.947v-.5h-4.948v.5h-4.947v-.5h-4.947v.5h-4.948v-.5H99v.5h-4.947v-.5h-4.948v.5h-4.947v-.5H79.21v.5h-4.947v-.5h-4.947v.5h-4.948v-.5h-4.947v.5h-4.947v-.5H52c-.769 0-1.52-.075-2.245-.219l-.097.491a11.942 11.942 0 0 1-4.325-1.793l.278-.416a11.546 11.546 0 0 1-3.174-3.174l-.416.278Z"/><path stroke="#CACFD8" stroke-dasharray="5 5" d="M42.021 374.667a11.931 11.931 0 0 1-1.793-4.325l.49-.097A11.556 11.556 0 0 1 40.5 368v-2.438H40v-4.874h.5v-4.876H40v-4.874h.5v-4.876H40v-4.874h.5v-4.876H40v-4.874h.5v-4.876H40v-4.874h.5v-4.876H40v-4.874h.5v-4.876H40v-4.874h.5v-4.876H40v-4.874h.5v-4.876H40v-4.874h.5v-4.876H40v-4.874h.5v-4.876H40v-4.874h.5v-4.876H40v-4.874h.5v-4.876H40v-4.874h.5v-4.876H40v-4.874h.5v-4.876H40v-4.874h.5v-4.876H40v-4.875h.5V212c0-.769.075-1.519.219-2.245l-.49-.097c.31-1.574.93-3.038 1.792-4.325l.416.278a11.546 11.546 0 0 1 3.174-3.174l-.278-.416a11.942 11.942 0 0 1 4.325-1.793l.097.491A11.524 11.524 0 0 1 52 200.5h2.474v-.5h4.947v.5h4.947v-.5h4.948v.5h4.947v-.5h4.948v.5h4.947v-.5h4.947v.5h4.948v-.5H99v.5h4.947v-.5h4.948v.5h4.947v-.5h4.947v.5h4.948v-.5h4.947v.5h4.947v-.5h4.948v.5h4.947v-.5h4.948v.5h4.947v-.5h4.947v.5h4.948v-.5h4.947v.5h4.947v-.5h4.948v.5h4.947v-.5h4.947v.5H193v-.5h4.947v.5h4.948v-.5h4.947v.5h4.947v-.5h4.948v.5h4.947v-.5h4.947v.5h4.948v-.5h4.947v.5h4.948v-.5h4.947v.5h4.947v-.5h4.948v.5h4.947v-.5h4.947v.5h4.948v-.5h4.947v.5h4.948v-.5H287v.5h4.947v-.5h4.948v.5h4.947v-.5h4.947v.5h4.948v-.5h4.947v.5h4.948v-.5h4.947v.5h4.947v-.5h4.948v.5h4.947v-.5h4.947v.5h4.948v-.5h4.947v.5h4.948v-.5h4.947v.5h4.947v-.5h4.948v.5H381v-.5h4.947v.5h4.948v-.5h4.947v.5h4.947v-.5h4.948v.5h4.947v-.5h4.948v.5h4.947v-.5h4.947v.5H428c.769 0 1.519.075 2.245.219l.097-.491c1.574.312 3.038.931 4.325 1.793l-.278.416a11.526 11.526 0 0 1 3.174 3.174l.416-.278a11.939 11.939 0 0 1 1.793 4.325l-.491.097c.144.726.219 1.476.219 2.245v2.438h.5v4.874h-.5v4.876h.5v4.874h-.5v4.876h.5v4.874h-.5v4.876h.5v4.874h-.5v4.876h.5v4.874h-.5v4.876h.5v4.874h-.5v4.876h.5v4.874h-.5v4.876h.5v4.874h-.5v4.876h.5v4.874h-.5v4.876h.5v4.874h-.5v4.876h.5v4.874h-.5v4.876h.5v4.874h-.5v4.876h.5v4.874h-.5v4.876h.5v4.874h-.5v4.876h.5v4.874h-.5v4.876h.5v4.874h-.5V368c0 .769-.075 1.519-.219 2.245l.491.097a11.939 11.939 0 0 1-1.793 4.325l-.416-.278a11.526 11.526 0 0 1-3.174 3.174l.278.416a11.939 11.939 0 0 1-4.325 1.793l-.097-.491c-.726.144-1.476.219-2.245.219h-2.474v.5h-4.947v-.5h-4.947v.5h-4.948v-.5h-4.947v.5h-4.948v-.5h-4.947v.5h-4.947v-.5h-4.948v.5H381v-.5h-4.947v.5h-4.948v-.5h-4.947v.5h-4.947v-.5h-4.948v.5h-4.947v-.5h-4.948v.5h-4.947v-.5h-4.947v.5h-4.948v-.5h-4.947v.5h-4.947v-.5h-4.948v.5h-4.947v-.5h-4.947v.5h-4.948v-.5h-4.947v.5h-4.947v-.5H287v.5h-4.947v-.5h-4.948v.5h-4.947v-.5h-4.947v.5h-4.948v-.5h-4.947v.5h-4.947v-.5h-4.948v.5h-4.947v-.5h-4.948v.5h-4.947v-.5h-4.947v.5h-4.948v-.5h-4.947v.5h-4.947v-.5h-4.948v.5h-4.947v-.5h-4.948v.5H193v-.5h-4.947v.5h-4.948v-.5h-4.947v.5h-4.947v-.5h-4.948v.5h-4.947v-.5h-4.948v.5h-4.947v-.5h-4.947v.5h-4.948v-.5h-4.947v.5h-4.947v-.5h-4.948v.5h-4.947v-.5h-4.948v.5h-4.947v-.5h-4.947v.5h-4.948v-.5H99v.5h-4.947v-.5h-4.948v.5h-4.947v-.5H79.21v.5h-4.947v-.5h-4.947v.5h-4.948v-.5h-4.947v.5h-4.947v-.5H52c-.769 0-1.52-.075-2.245-.219l-.097.491a11.942 11.942 0 0 1-4.325-1.793l.278-.416a11.546 11.546 0 0 1-3.174-3.174l-.416.278Z"/><path fill="#525866" d="m240 244.527 3.819 3.818-1.274 1.274-1.645-1.645V253h-1.8v-5.028l-1.645 1.647-1.274-1.274 3.819-3.818Zm0-9.527a6.302 6.302 0 0 1 6.259 5.575 4.951 4.951 0 0 1 2.201 8.272 4.947 4.947 0 0 1-3.059 1.433v-1.812a3.154 3.154 0 0 0 2.665-3.619 3.16 3.16 0 0 0-1.288-2.069 3.145 3.145 0 0 0-2.378-.531 4.51 4.51 0 0 0-.899-3.774 4.496 4.496 0 0 0-3.501-1.671 4.503 4.503 0 0 0-4.377 3.456 4.51 4.51 0 0 0-.022 1.989 3.15 3.15 0 1 0-1.163 6.192l.162.027v1.812a4.95 4.95 0 0 1-.859-9.705A6.298 6.298 0 0 1 240 235Z"/><path fill="#0E121B" d="M140.984 284.129h-1.551a2.388 2.388 0 0 0-.333-.875 2.467 2.467 0 0 0-.597-.641 2.57 2.57 0 0 0-.791-.398 3.1 3.1 0 0 0-.919-.134c-.587 0-1.112.147-1.576.442-.461.295-.826.728-1.094 1.298-.265.57-.398 1.266-.398 2.088 0 .829.133 1.528.398 2.098.268.57.635 1.001 1.099 1.293.464.291.986.437 1.566.437.321 0 .626-.043.914-.129.292-.09.556-.22.791-.393a2.393 2.393 0 0 0 .94-1.496l1.551.005c-.083.5-.244.961-.483 1.382a3.82 3.82 0 0 1-.909 1.084 4.135 4.135 0 0 1-1.263.701 4.689 4.689 0 0 1-1.551.248c-.882 0-1.667-.209-2.357-.626-.689-.421-1.233-1.023-1.63-1.805-.395-.782-.592-1.715-.592-2.799 0-1.087.199-2.02.597-2.799.397-.782.941-1.382 1.63-1.8.69-.421 1.473-.631 2.352-.631.54 0 1.044.078 1.511.234.471.152.893.377 1.268.676.374.295.684.656.93 1.084.245.424.411.909.497 1.456Zm3.121 2.337V291h-1.486v-10.182h1.466v3.789h.095c.179-.411.452-.738.82-.98.368-.242.849-.363 1.442-.363.523 0 .981.108 1.372.323.394.216.699.537.915.965.219.424.328.954.328 1.591V291h-1.487v-4.678c0-.56-.144-.995-.432-1.303-.289-.311-.69-.467-1.203-.467a1.96 1.96 0 0 0-.945.224 1.607 1.607 0 0 0-.651.656c-.156.285-.234.63-.234 1.034Zm10.068 4.688c-.716 0-1.341-.164-1.874-.492a3.315 3.315 0 0 1-1.243-1.377c-.295-.59-.442-1.28-.442-2.068 0-.793.147-1.485.442-2.079a3.317 3.317 0 0 1 1.243-1.382c.533-.328 1.158-.492 1.874-.492.716 0 1.341.164 1.874.492.534.329.948.789 1.243 1.382.295.594.443 1.286.443 2.079 0 .788-.148 1.478-.443 2.068a3.315 3.315 0 0 1-1.243 1.377c-.533.328-1.158.492-1.874.492Zm.005-1.248c.464 0 .849-.122 1.154-.368a2.16 2.16 0 0 0 .676-.979 3.9 3.9 0 0 0 .223-1.347c0-.488-.074-.935-.223-1.343a2.196 2.196 0 0 0-.676-.989c-.305-.249-.69-.373-1.154-.373-.467 0-.855.124-1.163.373a2.22 2.22 0 0 0-.681.989 3.958 3.958 0 0 0-.219 1.343c0 .49.073.939.219 1.347.149.408.376.734.681.979.308.246.696.368 1.163.368Zm8.347 1.248c-.716 0-1.341-.164-1.875-.492a3.32 3.32 0 0 1-1.242-1.377c-.295-.59-.443-1.28-.443-2.068 0-.793.148-1.485.443-2.079a3.321 3.321 0 0 1 1.242-1.382c.534-.328 1.159-.492 1.875-.492s1.34.164 1.874.492c.534.329.948.789 1.243 1.382.295.594.442 1.286.442 2.079 0 .788-.147 1.478-.442 2.068a3.315 3.315 0 0 1-1.243 1.377c-.534.328-1.158.492-1.874.492Zm.005-1.248c.464 0 .848-.122 1.153-.368.305-.245.53-.571.676-.979a3.9 3.9 0 0 0 .224-1.347c0-.488-.075-.935-.224-1.343a2.188 2.188 0 0 0-.676-.989c-.305-.249-.689-.373-1.153-.373-.468 0-.855.124-1.164.373a2.22 2.22 0 0 0-.681.989 3.958 3.958 0 0 0-.219 1.343c0 .49.073.939.219 1.347.149.408.376.734.681.979.309.246.696.368 1.164.368Zm10.852-4.678-1.347.239a1.603 1.603 0 0 0-.269-.493 1.33 1.33 0 0 0-.487-.382c-.206-.1-.462-.15-.771-.15-.421 0-.772.095-1.054.284-.281.185-.422.426-.422.721 0 .255.094.46.283.616.189.156.494.284.915.383l1.213.278c.703.163 1.226.413 1.571.751s.517.777.517 1.318c0 .457-.132.865-.398 1.223-.261.354-.628.633-1.098.835-.468.202-1.01.303-1.626.303-.855 0-1.553-.182-2.093-.547-.54-.368-.872-.89-.994-1.566l1.436-.219c.09.375.274.658.552.851.279.189.642.283 1.089.283.487 0 .877-.101 1.168-.303.292-.206.438-.456.438-.751a.782.782 0 0 0-.269-.602c-.175-.162-.445-.285-.81-.367l-1.293-.284c-.712-.162-1.239-.421-1.581-.775-.338-.355-.507-.804-.507-1.348 0-.45.126-.845.378-1.183.252-.338.6-.602 1.044-.79.444-.193.953-.289 1.526-.289.826 0 1.475.179 1.949.537.474.355.787.83.94 1.427Zm4.991 5.926c-.753 0-1.401-.161-1.944-.482a3.278 3.278 0 0 1-1.253-1.367c-.292-.59-.438-1.281-.438-2.073 0-.783.146-1.472.438-2.069a3.403 3.403 0 0 1 1.233-1.397c.53-.334 1.15-.502 1.859-.502.431 0 .849.071 1.253.214.404.143.767.366 1.089.671.321.305.575.701.761 1.188.185.484.278 1.073.278 1.765v.527h-6.07v-1.113h4.613c0-.391-.079-.738-.238-1.039a1.797 1.797 0 0 0-.672-.721 1.87 1.87 0 0 0-1.004-.264c-.417 0-.782.103-1.094.308a2.076 2.076 0 0 0-.715.796 2.294 2.294 0 0 0-.249 1.059v.87c0 .51.089.944.268 1.302.183.358.436.632.761.821.325.185.704.278 1.139.278.281 0 .538-.04.77-.119.232-.083.433-.206.602-.368a1.6 1.6 0 0 0 .388-.602l1.407.254a2.554 2.554 0 0 1-.607 1.089 2.945 2.945 0 0 1-1.089.721c-.434.169-.929.253-1.486.253Zm12.097-7.79v1.193h-4.316v-1.193h4.316ZM187.337 291v-8.521c0-.478.105-.874.314-1.189.209-.318.485-.555.83-.71.345-.16.719-.239 1.124-.239.298 0 .553.025.765.074.212.047.37.09.472.13l-.348 1.203a7.575 7.575 0 0 0-.268-.07 1.524 1.524 0 0 0-.398-.044c-.361 0-.62.089-.775.268-.153.179-.229.437-.229.776V291h-1.487Zm4.582 0v-7.636h1.487V291h-1.487Zm.751-8.815a.945.945 0 0 1-.666-.258.844.844 0 0 1-.274-.627.83.83 0 0 1 .274-.626.933.933 0 0 1 .666-.263c.259 0 .479.087.661.263a.822.822 0 0 1 .279.626.835.835 0 0 1-.279.627.927.927 0 0 1-.661.258Zm4.138-1.367V291h-1.486v-10.182h1.486Zm5.207 10.336c-.752 0-1.4-.161-1.944-.482a3.278 3.278 0 0 1-1.253-1.367c-.291-.59-.437-1.281-.437-2.073 0-.783.146-1.472.437-2.069a3.403 3.403 0 0 1 1.233-1.397c.531-.334 1.151-.502 1.86-.502.431 0 .848.071 1.253.214.404.143.767.366 1.088.671.322.305.575.701.761 1.188.186.484.278 1.073.278 1.765v.527h-6.07v-1.113h4.614c0-.391-.08-.738-.239-1.039a1.801 1.801 0 0 0-.671-.721 1.873 1.873 0 0 0-1.004-.264c-.418 0-.782.103-1.094.308a2.079 2.079 0 0 0-.716.796 2.294 2.294 0 0 0-.249 1.059v.87c0 .51.09.944.269 1.302.182.358.436.632.761.821.324.185.704.278 1.138.278.282 0 .539-.04.771-.119a1.589 1.589 0 0 0 .989-.97l1.407.254a2.554 2.554 0 0 1-.607 1.089 2.949 2.949 0 0 1-1.088.721c-.434.169-.93.253-1.487.253Zm10.564-5.926-1.347.239a1.603 1.603 0 0 0-.269-.493 1.322 1.322 0 0 0-.487-.382c-.205-.1-.462-.15-.77-.15-.421 0-.773.095-1.054.284-.282.185-.423.426-.423.721 0 .255.094.46.283.616.189.156.494.284.915.383l1.213.278c.703.163 1.226.413 1.571.751s.517.777.517 1.318c0 .457-.132.865-.397 1.223-.262.354-.629.633-1.099.835-.468.202-1.009.303-1.626.303-.855 0-1.553-.182-2.093-.547-.54-.368-.872-.89-.994-1.566l1.437-.219c.089.375.273.658.551.851.279.189.642.283 1.089.283.487 0 .877-.101 1.168-.303.292-.206.438-.456.438-.751a.782.782 0 0 0-.269-.602c-.175-.162-.445-.285-.81-.367l-1.292-.284c-.713-.162-1.24-.421-1.581-.775-.339-.355-.508-.804-.508-1.348 0-.45.126-.845.378-1.183.252-.338.6-.602 1.044-.79.444-.193.953-.289 1.527-.289.825 0 1.475.179 1.948.537.474.355.788.83.94 1.427Zm8.537 5.926c-.716 0-1.34-.164-1.874-.492a3.315 3.315 0 0 1-1.243-1.377c-.295-.59-.442-1.28-.442-2.068 0-.793.147-1.485.442-2.079a3.317 3.317 0 0 1 1.243-1.382c.534-.328 1.158-.492 1.874-.492.716 0 1.341.164 1.875.492.533.329.948.789 1.243 1.382.295.594.442 1.286.442 2.079 0 .788-.147 1.478-.442 2.068a3.322 3.322 0 0 1-1.243 1.377c-.534.328-1.159.492-1.875.492Zm.005-1.248c.464 0 .849-.122 1.154-.368.305-.245.53-.571.676-.979a3.9 3.9 0 0 0 .224-1.347c0-.488-.075-.935-.224-1.343a2.188 2.188 0 0 0-.676-.989c-.305-.249-.69-.373-1.154-.373-.467 0-.855.124-1.163.373a2.22 2.22 0 0 0-.681.989 3.958 3.958 0 0 0-.219 1.343c0 .49.073.939.219 1.347.149.408.376.734.681.979.308.246.696.368 1.163.368Zm5.13 1.094v-7.636h1.437v1.213h.08c.139-.411.384-.734.735-.97a2.113 2.113 0 0 1 1.204-.358 7.192 7.192 0 0 1 .631.035v1.422a2.609 2.609 0 0 0-.318-.055 3.071 3.071 0 0 0-.458-.035 1.94 1.94 0 0 0-.939.224 1.67 1.67 0 0 0-.647.612 1.652 1.652 0 0 0-.238.885V291h-1.487Zm11.769.149a2.96 2.96 0 0 1-1.651-.472c-.48-.318-.858-.771-1.133-1.357-.272-.59-.408-1.298-.408-2.123 0-.826.138-1.532.413-2.118.278-.587.66-1.036 1.143-1.347a2.973 2.973 0 0 1 1.646-.468c.474 0 .855.08 1.143.239.292.156.518.338.677.547.162.209.288.392.377.552h.09v-3.784h1.486V291h-1.451v-1.188h-.125a3.917 3.917 0 0 1-.387.557 2.164 2.164 0 0 1-.686.546c-.292.156-.67.234-1.134.234Zm.328-1.268c.428 0 .789-.112 1.084-.338.298-.228.524-.545.676-.949.156-.405.234-.875.234-1.412 0-.53-.076-.995-.229-1.392-.152-.398-.376-.708-.671-.93-.295-.222-.66-.333-1.094-.333-.447 0-.82.116-1.118.348a2.129 2.129 0 0 0-.677.95 3.874 3.874 0 0 0-.223 1.357c0 .51.076.969.228 1.377.153.408.378.731.677.969.301.236.672.353 1.113.353Zm5.493 1.119v-7.636h1.437v1.213h.079c.14-.411.385-.734.736-.97a2.112 2.112 0 0 1 1.203-.358 7.11 7.11 0 0 1 .632.035v1.422a2.609 2.609 0 0 0-.318-.055 3.071 3.071 0 0 0-.458-.035 1.94 1.94 0 0 0-.939.224 1.663 1.663 0 0 0-.885 1.497V291h-1.487Zm7.443.169c-.484 0-.921-.089-1.312-.268a2.212 2.212 0 0 1-.93-.791c-.226-.345-.338-.767-.338-1.268 0-.431.083-.785.248-1.064.166-.278.39-.498.672-.661a3.51 3.51 0 0 1 .944-.368 9.352 9.352 0 0 1 1.064-.189l1.114-.129c.285-.036.492-.094.621-.174.129-.079.194-.209.194-.388v-.034c0-.435-.123-.771-.368-1.01-.242-.238-.603-.358-1.084-.358-.5 0-.895.111-1.183.333-.285.219-.482.463-.592.731l-1.397-.318c.166-.464.408-.838.726-1.124a2.947 2.947 0 0 1 1.109-.626 4.317 4.317 0 0 1 1.317-.199c.305 0 .629.037.97.11.345.069.666.198.964.387.302.189.549.459.741.811.192.348.289.8.289 1.357V291h-1.452v-1.044h-.06c-.096.192-.24.381-.432.567a2.33 2.33 0 0 1-.741.462c-.302.123-.663.184-1.084.184Zm.323-1.193c.411 0 .763-.081 1.054-.244.295-.162.519-.374.671-.636a1.65 1.65 0 0 0 .234-.85v-.985c-.053.053-.156.103-.308.15-.149.043-.32.081-.512.114-.193.03-.38.058-.562.084l-.457.06a3.67 3.67 0 0 0-.791.184c-.235.086-.424.21-.567.373-.139.159-.209.371-.209.636 0 .368.136.647.408.835.272.186.618.279 1.039.279Zm8.543 4.047c-.606 0-1.128-.08-1.566-.239-.434-.159-.789-.369-1.064-.631a2.66 2.66 0 0 1-.616-.86l1.277-.527c.09.145.209.3.358.462.153.166.358.307.617.423.262.116.598.174 1.009.174.564 0 1.029-.138 1.397-.413.368-.272.552-.706.552-1.303v-1.501h-.095a3.374 3.374 0 0 1-.387.542 2.107 2.107 0 0 1-.686.517c-.292.146-.672.219-1.139.219a3.18 3.18 0 0 1-1.631-.423c-.48-.285-.861-.704-1.143-1.258-.278-.557-.418-1.241-.418-2.053 0-.812.138-1.508.413-2.088.278-.58.66-1.024 1.143-1.332a2.973 2.973 0 0 1 1.646-.468c.474 0 .857.08 1.149.239.291.156.518.338.681.547.165.209.293.392.382.552h.11v-1.238h1.456v7.805c0 .656-.152 1.195-.457 1.616a2.685 2.685 0 0 1-1.238.934c-.517.203-1.1.304-1.75.304Zm-.015-4.37c.428 0 .789-.1 1.084-.299.298-.202.524-.49.676-.865.156-.377.234-.83.234-1.357 0-.514-.076-.966-.229-1.357a2.016 2.016 0 0 0-.671-.915c-.295-.222-.66-.333-1.094-.333-.447 0-.82.116-1.118.348a2.09 2.09 0 0 0-.676.935c-.15.394-.224.835-.224 1.322 0 .501.076.94.228 1.318.153.377.378.672.677.885.301.212.672.318 1.113.318Zm11.954 1.491c-.683 0-1.271-.124-1.765-.373a2.764 2.764 0 0 1-1.133-1.014 2.734 2.734 0 0 1-.398-1.462c0-.414.086-.782.259-1.103.172-.325.412-.625.72-.9.309-.275.665-.552 1.069-.83l1.641-1.159c.278-.182.495-.374.651-.576.156-.206.234-.459.234-.761 0-.239-.103-.467-.308-.686-.206-.219-.481-.328-.826-.328a1.15 1.15 0 0 0-.631.174c-.179.116-.32.265-.423.447a1.155 1.155 0 0 0-.149.567c0 .232.063.466.189.701.129.235.295.479.497.731.203.248.415.507.637.775l4.728 5.653H275.4l-3.912-4.599c-.328-.388-.633-.752-.915-1.093a5.595 5.595 0 0 1-.686-1.045 2.58 2.58 0 0 1-.259-1.148c0-.467.106-.882.318-1.243.216-.364.516-.649.9-.855.385-.205.836-.308 1.353-.308.523 0 .972.103 1.347.308.378.202.668.472.87.81.205.335.308.701.308 1.099 0 .484-.121.912-.363 1.283a3.893 3.893 0 0 1-.989 1.014l-2.043 1.506c-.398.292-.675.58-.831.865-.152.282-.228.503-.228.662 0 .291.074.561.223.81.153.249.365.447.637.597.275.149.596.223.964.223.378 0 .746-.081 1.104-.243.361-.166.688-.403.979-.711.295-.308.529-.678.701-1.109.173-.431.259-.913.259-1.447h1.342c0 .657-.074 1.212-.224 1.666-.149.451-.329.819-.541 1.104a4.11 4.11 0 0 1-.592.661c-.06.053-.116.106-.169.159-.053.053-.11.106-.169.159a3.16 3.16 0 0 1-1.253.771 4.477 4.477 0 0 1-1.442.248Zm12.552.005a2.96 2.96 0 0 1-1.651-.472c-.48-.318-.858-.771-1.133-1.357-.272-.59-.408-1.298-.408-2.123 0-.826.138-1.532.413-2.118.278-.587.659-1.036 1.143-1.347a2.973 2.973 0 0 1 1.646-.468c.474 0 .855.08 1.143.239.292.156.517.338.677.547.162.209.288.392.377.552h.09v-3.784h1.486V291h-1.451v-1.188h-.125a3.917 3.917 0 0 1-.387.557 2.164 2.164 0 0 1-.686.546c-.292.156-.67.234-1.134.234Zm.328-1.268c.428 0 .789-.112 1.084-.338.298-.228.524-.545.676-.949.156-.405.234-.875.234-1.412 0-.53-.076-.995-.229-1.392-.152-.398-.376-.708-.671-.93-.295-.222-.66-.333-1.094-.333-.447 0-.82.116-1.118.348a2.129 2.129 0 0 0-.677.95 3.874 3.874 0 0 0-.223 1.357c0 .51.076.969.228 1.377.153.408.378.731.677.969.301.236.672.353 1.113.353Zm5.493 1.119v-7.636h1.437v1.213h.079c.14-.411.385-.734.736-.97a2.112 2.112 0 0 1 1.203-.358 7.15 7.15 0 0 1 .632.035v1.422a2.609 2.609 0 0 0-.318-.055 3.071 3.071 0 0 0-.458-.035 1.94 1.94 0 0 0-.939.224 1.663 1.663 0 0 0-.885 1.497V291h-1.487Zm8.232.154c-.716 0-1.34-.164-1.874-.492a3.315 3.315 0 0 1-1.243-1.377c-.295-.59-.442-1.28-.442-2.068 0-.793.147-1.485.442-2.079a3.317 3.317 0 0 1 1.243-1.382c.534-.328 1.158-.492 1.874-.492.716 0 1.341.164 1.875.492.533.329.947.789 1.242 1.382.295.594.443 1.286.443 2.079 0 .788-.148 1.478-.443 2.068a3.32 3.32 0 0 1-1.242 1.377c-.534.328-1.159.492-1.875.492Zm.005-1.248c.464 0 .849-.122 1.154-.368.305-.245.53-.571.676-.979a3.9 3.9 0 0 0 .224-1.347c0-.488-.075-.935-.224-1.343a2.188 2.188 0 0 0-.676-.989c-.305-.249-.69-.373-1.154-.373-.467 0-.855.124-1.163.373a2.22 2.22 0 0 0-.681.989 3.958 3.958 0 0 0-.219 1.343c0 .49.073.939.219 1.347.149.408.376.734.681.979.308.246.696.368 1.163.368Zm5.13 3.958v-10.5h1.452v1.238h.124c.086-.16.211-.343.373-.552.162-.209.388-.391.676-.547.289-.159.67-.239 1.144-.239.616 0 1.166.156 1.65.468.484.311.864.76 1.139 1.347.278.586.417 1.292.417 2.118 0 .825-.137 1.533-.412 2.123-.275.586-.653 1.039-1.134 1.357a2.932 2.932 0 0 1-1.645.472c-.464 0-.844-.078-1.139-.234a2.152 2.152 0 0 1-.686-.546 4.204 4.204 0 0 1-.383-.557h-.089v4.052h-1.487Zm1.457-6.682c0 .537.078 1.007.234 1.412.155.404.381.721.676.949.295.226.656.338 1.083.338.445 0 .816-.117 1.114-.353.298-.238.524-.561.676-.969.156-.408.234-.867.234-1.377 0-.504-.076-.956-.229-1.357a2.075 2.075 0 0 0-.676-.95c-.298-.232-.671-.348-1.119-.348-.43 0-.795.111-1.093.333-.295.222-.519.532-.671.93-.153.397-.229.862-.229 1.392Zm12.207-.716V291h-1.486v-10.182h1.467v3.789h.094c.179-.411.452-.738.82-.98.368-.242.849-.363 1.442-.363.524 0 .981.108 1.372.323.395.216.7.537.915.965.219.424.328.954.328 1.591V291h-1.486v-4.678c0-.56-.145-.995-.433-1.303-.288-.311-.689-.467-1.203-.467-.351 0-.666.074-.945.224a1.607 1.607 0 0 0-.651.656c-.156.285-.234.63-.234 1.034Zm10.143 4.688c-.752 0-1.4-.161-1.944-.482a3.278 3.278 0 0 1-1.253-1.367c-.291-.59-.437-1.281-.437-2.073 0-.783.146-1.472.437-2.069a3.403 3.403 0 0 1 1.233-1.397c.53-.334 1.15-.502 1.86-.502.43 0 .848.071 1.252.214a3.03 3.03 0 0 1 1.089.671c.322.305.575.701.761 1.188.185.484.278 1.073.278 1.765v.527h-6.07v-1.113h4.614c0-.391-.08-.738-.239-1.039a1.801 1.801 0 0 0-.671-.721 1.873 1.873 0 0 0-1.004-.264c-.418 0-.783.103-1.094.308a2.079 2.079 0 0 0-.716.796 2.294 2.294 0 0 0-.249 1.059v.87c0 .51.09.944.269 1.302.182.358.436.632.76.821.325.185.705.278 1.139.278.282 0 .538-.04.77-.119.232-.083.433-.206.602-.368a1.6 1.6 0 0 0 .388-.602l1.407.254a2.554 2.554 0 0 1-.607 1.089 2.945 2.945 0 0 1-1.089.721c-.434.169-.929.253-1.486.253Zm4.842-.154v-7.636h1.436v1.213h.08c.139-.411.384-.734.736-.97a2.107 2.107 0 0 1 1.203-.358 7.15 7.15 0 0 1 .631.035v1.422a2.536 2.536 0 0 0-.318-.055 3.058 3.058 0 0 0-.457-.035 1.94 1.94 0 0 0-.94.224 1.66 1.66 0 0 0-.885 1.497V291h-1.486Zm8.306.154c-.752 0-1.4-.161-1.944-.482a3.275 3.275 0 0 1-1.252-1.367c-.292-.59-.438-1.281-.438-2.073 0-.783.146-1.472.438-2.069a3.403 3.403 0 0 1 1.233-1.397c.53-.334 1.15-.502 1.859-.502.431 0 .848.071 1.253.214.404.143.767.366 1.089.671.321.305.575.701.76 1.188.186.484.279 1.073.279 1.765v.527h-6.071v-1.113h4.614c0-.391-.08-.738-.239-1.039a1.794 1.794 0 0 0-.671-.721 1.873 1.873 0 0 0-1.004-.264c-.418 0-.782.103-1.094.308a2.079 2.079 0 0 0-.716.796 2.306 2.306 0 0 0-.248 1.059v.87c0 .51.089.944.268 1.302.182.358.436.632.761.821a2.26 2.26 0 0 0 1.138.278c.282 0 .539-.04.771-.119a1.589 1.589 0 0 0 .989-.97l1.407.254a2.552 2.552 0 0 1-.606 1.089 2.961 2.961 0 0 1-1.089.721c-.434.169-.93.253-1.487.253Zm5.821-.06a.968.968 0 0 1-.701-.288.964.964 0 0 1-.293-.706c0-.272.098-.504.293-.696a.96.96 0 0 1 .701-.293c.272 0 .506.098.701.293a.939.939 0 0 1 .294.696c0 .182-.047.35-.139.502-.09.149-.209.269-.358.358a.946.946 0 0 1-.498.134Z"/><g filter="url(#e)"><path fill="#fff" d="M190 324a8 8 0 0 1 8-8h84a8 8 0 0 1 8 8v16a8 8 0 0 1-8 8h-84a8 8 0 0 1-8-8v-16Z"/><path stroke="#E1E4EA" d="M190.5 324a7.5 7.5 0 0 1 7.5-7.5h84a7.5 7.5 0 0 1 7.5 7.5v16a7.5 7.5 0 0 1-7.5 7.5h-84a7.5 7.5 0 0 1-7.5-7.5v-16Z"/><path fill="#525866" d="M203.119 337v-10.182h3.728c.723 0 1.321.119 1.795.358.474.235.829.555 1.064.96.235.401.353.853.353 1.357 0 .424-.078.782-.234 1.074a1.92 1.92 0 0 1-.626.696 2.79 2.79 0 0 1-.855.378v.099c.338.017.668.126.989.328.325.199.593.482.805.85.213.368.319.816.319 1.343 0 .52-.123.987-.368 1.402-.242.411-.617.737-1.124.979-.507.239-1.155.358-1.944.358h-3.902Zm1.536-1.317h2.217c.736 0 1.263-.143 1.581-.428.318-.285.477-.641.477-1.069a1.683 1.683 0 0 0-.939-1.526c-.299-.159-.653-.239-1.064-.239h-2.272v3.262Zm0-4.46h2.058c.345 0 .655-.066.93-.199a1.62 1.62 0 0 0 .661-.557c.166-.242.249-.527.249-.855 0-.421-.148-.774-.443-1.059-.295-.285-.747-.427-1.357-.427h-2.098v3.097Zm7.42 5.777v-7.636h1.437v1.213h.08c.139-.411.384-.734.736-.97a2.107 2.107 0 0 1 1.203-.358 7.15 7.15 0 0 1 .631.035v1.422a2.609 2.609 0 0 0-.318-.055 3.068 3.068 0 0 0-.457-.035 1.94 1.94 0 0 0-.94.224 1.66 1.66 0 0 0-.885 1.497V337h-1.487Zm8.233.154c-.716 0-1.341-.164-1.875-.492a3.322 3.322 0 0 1-1.243-1.377c-.294-.59-.442-1.28-.442-2.068 0-.793.148-1.485.442-2.079a3.323 3.323 0 0 1 1.243-1.382c.534-.328 1.159-.492 1.875-.492s1.34.164 1.874.492c.534.329.948.789 1.243 1.382.295.594.442 1.286.442 2.079 0 .788-.147 1.478-.442 2.068a3.315 3.315 0 0 1-1.243 1.377c-.534.328-1.158.492-1.874.492Zm.005-1.248c.464 0 .848-.122 1.153-.368.305-.245.53-.571.676-.979a3.9 3.9 0 0 0 .224-1.347c0-.488-.075-.935-.224-1.343a2.188 2.188 0 0 0-.676-.989c-.305-.249-.689-.373-1.153-.373-.468 0-.855.124-1.164.373a2.22 2.22 0 0 0-.681.989 3.958 3.958 0 0 0-.219 1.343c0 .49.073.939.219 1.347.149.408.376.734.681.979.309.246.696.368 1.164.368Zm6.553 1.094-2.247-7.636h1.536l1.496 5.608h.075l1.501-5.608h1.536l1.492 5.583h.074l1.487-5.583h1.536L233.11 337h-1.516l-1.551-5.513h-.115L228.377 337h-1.511Zm15.535-5.772-1.347.239a1.582 1.582 0 0 0-.269-.493 1.322 1.322 0 0 0-.487-.382c-.205-.1-.462-.15-.77-.15-.421 0-.773.095-1.054.284-.282.185-.423.426-.423.721 0 .255.095.46.283.616.189.156.494.284.915.383l1.213.278c.703.163 1.227.413 1.571.751.345.338.517.777.517 1.318 0 .457-.132.865-.397 1.223-.262.354-.628.633-1.099.835-.467.202-1.009.303-1.626.303-.855 0-1.553-.182-2.093-.547-.54-.368-.872-.89-.994-1.566l1.437-.219c.089.375.273.658.551.851.279.189.642.283 1.089.283.487 0 .877-.101 1.169-.303.291-.206.437-.456.437-.751a.78.78 0 0 0-.268-.602c-.176-.162-.446-.285-.811-.367l-1.292-.284c-.713-.162-1.24-.421-1.581-.775-.338-.355-.507-.804-.507-1.348 0-.45.126-.845.377-1.183.252-.338.6-.602 1.044-.79.445-.193.953-.289 1.527-.289.825 0 1.475.179 1.949.537.474.355.787.83.939 1.427Zm4.991 5.926c-.752 0-1.4-.161-1.944-.482a3.278 3.278 0 0 1-1.253-1.367c-.291-.59-.437-1.281-.437-2.073 0-.783.146-1.472.437-2.069a3.403 3.403 0 0 1 1.233-1.397c.53-.334 1.15-.502 1.86-.502.43 0 .848.071 1.252.214a3.03 3.03 0 0 1 1.089.671c.322.305.575.701.761 1.188.185.484.278 1.073.278 1.765v.527h-6.07v-1.113h4.614c0-.391-.08-.738-.239-1.039a1.801 1.801 0 0 0-.671-.721 1.873 1.873 0 0 0-1.004-.264c-.418 0-.783.103-1.094.308a2.079 2.079 0 0 0-.716.796 2.294 2.294 0 0 0-.249 1.059v.87c0 .51.09.944.269 1.302.182.358.436.632.76.821.325.185.705.278 1.139.278.282 0 .538-.04.77-.119.232-.083.433-.206.602-.368a1.6 1.6 0 0 0 .388-.602l1.407.254a2.554 2.554 0 0 1-.607 1.089 2.945 2.945 0 0 1-1.089.721c-.434.169-.929.253-1.486.253Zm8.582-.154v-10.182h6.314v1.323h-4.778v3.102h4.325v1.317h-4.325V337h-1.536Zm8 0v-7.636h1.486V337h-1.486Zm.75-8.815a.947.947 0 0 1-.666-.258.843.843 0 0 1-.273-.627.83.83 0 0 1 .273-.626.934.934 0 0 1 .666-.263c.259 0 .479.087.662.263a.824.824 0 0 1 .278.626.837.837 0 0 1-.278.627.93.93 0 0 1-.662.258Zm4.139-1.367V337h-1.487v-10.182h1.487Zm5.207 10.336c-.753 0-1.401-.161-1.944-.482a3.271 3.271 0 0 1-1.253-1.367c-.292-.59-.438-1.281-.438-2.073 0-.783.146-1.472.438-2.069a3.403 3.403 0 0 1 1.233-1.397c.53-.334 1.15-.502 1.859-.502.431 0 .849.071 1.253.214.404.143.767.366 1.089.671.321.305.575.701.76 1.188.186.484.279 1.073.279 1.765v.527h-6.07v-1.113h4.613c0-.391-.079-.738-.238-1.039a1.797 1.797 0 0 0-.672-.721 1.87 1.87 0 0 0-1.004-.264c-.417 0-.782.103-1.094.308a2.076 2.076 0 0 0-.715.796 2.294 2.294 0 0 0-.249 1.059v.87c0 .51.089.944.268 1.302.183.358.436.632.761.821.325.185.704.278 1.139.278.281 0 .538-.04.77-.119a1.587 1.587 0 0 0 .989-.97l1.407.254a2.541 2.541 0 0 1-.606 1.089 2.945 2.945 0 0 1-1.089.721c-.434.169-.93.253-1.486.253Z"/></g><path fill="#fff" d="M40.5 412c0-6.351 5.149-11.5 11.5-11.5h376c6.351 0 11.5 5.149 11.5 11.5v48c0 6.351-5.149 11.5-11.5 11.5H52c-6.351 0-11.5-5.149-11.5-11.5v-48Z"/><path stroke="#E1E4EA" d="M40.5 412c0-6.351 5.149-11.5 11.5-11.5h376c6.351 0 11.5 5.149 11.5 11.5v48c0 6.351-5.149 11.5-11.5 11.5H52c-6.351 0-11.5-5.149-11.5-11.5v-48Z"/><path fill="#fff" stroke="#CACFD8" stroke-width="1.5" d="M84 455.25H64a5.25 5.25 0 0 1-5.25-5.25v-28a5.25 5.25 0 0 1 5.25-5.25h10.515c1.392 0 2.728.553 3.712 1.538l9.485 9.485a5.25 5.25 0 0 1 1.538 3.712V450a5.25 5.25 0 0 1-5.25 5.25Z"/><path stroke="#CACFD8" stroke-width="1.5" d="M77 417v8a4 4 0 0 0 4 4h8"/><path fill="#335CFF" d="M54 438a4 4 0 0 1 4-4h20a4 4 0 0 1 4 4v8a4 4 0 0 1-4 4H58a4 4 0 0 1-4-4v-8Z"/><path fill="#fff" d="M57.79 446v-8h3c.614 0 1.13.115 1.546.344.42.229.736.544.95.945.215.398.323.852.323 1.359 0 .513-.108.969-.324 1.368a2.318 2.318 0 0 1-.957.941c-.422.227-.941.34-1.559.34h-1.988v-1.192h1.793c.36 0 .654-.062.883-.187.23-.125.398-.297.508-.516a1.63 1.63 0 0 0 .168-.754c0-.283-.056-.533-.168-.75a1.135 1.135 0 0 0-.512-.503c-.229-.123-.525-.184-.887-.184h-1.328V446H57.79Zm10.01 0h-2.712v-8h2.766c.794 0 1.476.16 2.047.48a3.212 3.212 0 0 1 1.32 1.372c.307.596.46 1.309.46 2.14 0 .834-.154 1.55-.464 2.149a3.216 3.216 0 0 1-1.332 1.379c-.578.32-1.273.48-2.086.48Zm-1.263-1.254h1.192c.557 0 1.022-.101 1.394-.305.373-.205.653-.511.84-.918.188-.408.281-.919.281-1.531 0-.612-.093-1.12-.28-1.523a1.912 1.912 0 0 0-.833-.91c-.365-.204-.818-.305-1.36-.305h-1.234v5.492ZM73.28 446v-8h5.125v1.215h-3.676v2.172h3.324v1.215h-3.324V446h-1.45Z"/><path fill="#0E121B" d="M110.29 431.154c-.752 0-1.4-.161-1.943-.482a3.271 3.271 0 0 1-1.253-1.367c-.292-.59-.438-1.281-.438-2.073 0-.783.146-1.472.438-2.069a3.403 3.403 0 0 1 1.233-1.397c.53-.334 1.15-.502 1.859-.502.431 0 .849.071 1.253.214.404.143.767.366 1.089.671.321.305.575.701.76 1.188.186.484.279 1.073.279 1.765v.527h-6.071v-1.113h4.614c0-.391-.079-.738-.239-1.039a1.794 1.794 0 0 0-.671-.721 1.873 1.873 0 0 0-1.004-.264c-.418 0-.782.103-1.094.308a2.079 2.079 0 0 0-.716.796 2.306 2.306 0 0 0-.248 1.059v.87c0 .51.089.944.268 1.302.183.358.436.632.761.821a2.26 2.26 0 0 0 1.138.278c.282 0 .539-.04.771-.119a1.587 1.587 0 0 0 .989-.97l1.407.254a2.552 2.552 0 0 1-.606 1.089 2.961 2.961 0 0 1-1.089.721c-.434.169-.93.253-1.487.253Zm4.842-.154v-7.636h1.427v1.243h.094c.159-.421.42-.75.781-.985.361-.238.794-.358 1.298-.358.51 0 .937.12 1.282.358.348.239.605.567.771.985h.079c.183-.408.473-.733.87-.975.398-.245.872-.368 1.422-.368.693 0 1.258.217 1.696.651.44.435.661 1.089.661 1.964V431h-1.487v-4.982c0-.517-.141-.891-.422-1.123a1.538 1.538 0 0 0-1.01-.348c-.483 0-.86.149-1.128.447-.269.295-.403.675-.403 1.139V431h-1.481v-5.076c0-.414-.13-.747-.388-.999-.259-.252-.595-.378-1.009-.378a1.44 1.44 0 0 0-.781.224 1.638 1.638 0 0 0-.572.611 1.88 1.88 0 0 0-.213.91V431h-1.487Zm14.511.169c-.483 0-.921-.089-1.312-.268a2.218 2.218 0 0 1-.93-.791c-.225-.345-.338-.767-.338-1.268 0-.431.083-.785.249-1.064.165-.278.389-.498.671-.661a3.53 3.53 0 0 1 .945-.368 9.335 9.335 0 0 1 1.063-.189l1.114-.129c.285-.036.492-.094.622-.174.129-.079.193-.209.193-.388v-.034c0-.435-.122-.771-.367-1.01-.242-.238-.604-.358-1.084-.358-.501 0-.895.111-1.184.333-.285.219-.482.463-.591.731l-1.397-.318c.166-.464.408-.838.726-1.124a2.943 2.943 0 0 1 1.108-.626 4.319 4.319 0 0 1 1.318-.199c.305 0 .628.037.969.11.345.069.666.198.965.387.301.189.548.459.741.811.192.348.288.8.288 1.357V431h-1.452v-1.044h-.059a2.152 2.152 0 0 1-.433.567 2.308 2.308 0 0 1-.741.462c-.301.123-.663.184-1.084.184Zm.324-1.193c.411 0 .762-.081 1.054-.244.295-.162.518-.374.671-.636.156-.265.233-.549.233-.85v-.985c-.053.053-.155.103-.308.15-.149.043-.32.081-.512.114-.192.03-.379.058-.562.084l-.457.06a3.683 3.683 0 0 0-.791.184c-.235.086-.424.21-.566.373-.14.159-.209.371-.209.636 0 .368.136.647.408.835.271.186.618.279 1.039.279Zm5.341 1.024v-7.636h1.486V431h-1.486Zm.751-8.815a.948.948 0 0 1-.667-.258.843.843 0 0 1-.273-.627.83.83 0 0 1 .273-.626.935.935 0 0 1 .667-.263c.258 0 .478.087.661.263a.824.824 0 0 1 .278.626.837.837 0 0 1-.278.627.93.93 0 0 1-.661.258Zm4.138-1.367V431h-1.487v-10.182h1.487ZM148.045 431v1.263h-6.468V431h6.468Zm1.544 0v-7.636h1.427v1.243h.094c.159-.421.42-.75.781-.985.361-.238.794-.358 1.297-.358.511 0 .938.12 1.283.358.348.239.605.567.771.985h.079c.183-.408.473-.733.87-.975.398-.245.872-.368 1.422-.368.693 0 1.258.217 1.695.651.441.435.662 1.089.662 1.964V431h-1.487v-4.982c0-.517-.141-.891-.422-1.123a1.54 1.54 0 0 0-1.01-.348c-.484 0-.86.149-1.128.447-.269.295-.403.675-.403 1.139V431h-1.481v-5.076c0-.414-.13-.747-.388-.999-.259-.252-.595-.378-1.009-.378a1.44 1.44 0 0 0-.781.224 1.638 1.638 0 0 0-.572.611 1.88 1.88 0 0 0-.213.91V431h-1.487Zm12.289 0v-7.636h1.487V431h-1.487Zm.751-8.815a.944.944 0 0 1-.666-.258.84.84 0 0 1-.274-.627c0-.245.091-.454.274-.626a.931.931 0 0 1 .666-.263c.258 0 .479.087.661.263a.82.82 0 0 1 .278.626.834.834 0 0 1-.278.627.929.929 0 0 1-.661.258Zm4.138-1.367V431h-1.487v-10.182h1.487ZM168.802 431v-10.182h1.487v3.784h.089c.086-.16.211-.343.373-.552.162-.209.388-.391.676-.547.288-.159.67-.239 1.144-.239.616 0 1.166.156 1.65.468.484.311.863.76 1.139 1.347.278.586.417 1.292.417 2.118 0 .825-.137 1.533-.412 2.123-.276.586-.653 1.039-1.134 1.357a2.935 2.935 0 0 1-1.646.472c-.464 0-.843-.078-1.138-.234a2.152 2.152 0 0 1-.686-.546 4.204 4.204 0 0 1-.383-.557h-.124V431h-1.452Zm1.457-3.818c0 .537.078 1.007.233 1.412.156.404.382.721.677.949.295.226.656.338 1.083.338.444 0 .816-.117 1.114-.353.298-.238.524-.561.676-.969.156-.408.234-.867.234-1.377 0-.504-.076-.956-.229-1.357a2.075 2.075 0 0 0-.676-.95c-.298-.232-.671-.348-1.119-.348-.431 0-.795.111-1.093.333-.295.222-.519.532-.672.93-.152.397-.228.862-.228 1.392Zm11.941.651v-4.469h1.491V431h-1.461v-1.322h-.08a2.389 2.389 0 0 1-.845 1.019c-.385.268-.864.402-1.437.402-.49 0-.925-.107-1.302-.323a2.263 2.263 0 0 1-.885-.969c-.213-.428-.319-.956-.319-1.586v-4.857h1.487v4.678c0 .52.144.935.432 1.243.289.308.663.462 1.124.462.278 0 .555-.069.83-.209.279-.139.509-.349.691-.631.186-.282.277-.64.274-1.074Zm3.405 3.167v-7.636h1.436v1.213h.08c.139-.411.384-.734.736-.97a2.107 2.107 0 0 1 1.203-.358 7.15 7.15 0 0 1 .631.035v1.422a2.536 2.536 0 0 0-.318-.055 3.058 3.058 0 0 0-.457-.035 1.94 1.94 0 0 0-.94.224 1.66 1.66 0 0 0-.885 1.497V431h-1.486Zm6.775-4.534V431h-1.486v-7.636h1.426v1.243h.095c.176-.405.451-.73.825-.975.378-.245.854-.368 1.427-.368.52 0 .976.11 1.367.328.391.216.695.537.91.965.215.427.323.956.323 1.586V431h-1.486v-4.678c0-.554-.144-.986-.433-1.298-.288-.315-.684-.472-1.188-.472-.345 0-.651.074-.92.224a1.605 1.605 0 0 0-.631.656c-.153.285-.229.63-.229 1.034ZM204.631 431v1.263h-6.468V431h6.468Zm3.784.169c-.786-.003-1.457-.21-2.014-.621-.557-.411-.983-1.01-1.278-1.795-.295-.786-.442-1.732-.442-2.839 0-1.104.147-2.047.442-2.829.299-.782.726-1.379 1.283-1.79.56-.411 1.23-.616 2.009-.616.778 0 1.446.207 2.003.621.557.411.983 1.008 1.278 1.79.298.779.447 1.72.447 2.824 0 1.11-.147 2.058-.442 2.844-.295.782-.721 1.38-1.278 1.795-.557.411-1.226.616-2.008.616Zm0-1.327c.689 0 1.228-.337 1.615-1.01.391-.672.587-1.645.587-2.918 0-.845-.09-1.559-.268-2.143-.176-.586-.43-1.03-.761-1.332a1.663 1.663 0 0 0-1.173-.457c-.687 0-1.225.338-1.616 1.014-.391.676-.589 1.649-.592 2.918 0 .849.088 1.566.264 2.153.179.583.432 1.026.76 1.327a1.7 1.7 0 0 0 1.184.448Zm8.963 1.297a4.097 4.097 0 0 1-1.343-.248 3.153 3.153 0 0 1-1.193-.796c-.358-.371-.645-.87-.86-1.496-.212-.627-.318-1.409-.318-2.347 0-.888.088-1.677.263-2.366.179-.69.436-1.271.771-1.745a3.403 3.403 0 0 1 1.213-1.089 3.379 3.379 0 0 1 1.596-.373c.606 0 1.145.119 1.616.358.47.239.851.568 1.143.989.295.421.482.9.562 1.437h-1.516a1.96 1.96 0 0 0-.612-1.039c-.305-.268-.703-.403-1.193-.403-.746 0-1.328.325-1.745.975-.414.649-.623 1.553-.627 2.709h.075a2.79 2.79 0 0 1 .646-.736 3.041 3.041 0 0 1 1.88-.641c.59 0 1.123.144 1.6.433.481.285.864.679 1.149 1.183.285.504.427 1.08.427 1.73a3.55 3.55 0 0 1-.442 1.765 3.247 3.247 0 0 1-1.233 1.253c-.53.305-1.15.454-1.859.447Zm-.005-1.292c.391 0 .74-.097 1.049-.289.308-.192.551-.451.73-.775a2.22 2.22 0 0 0 .269-1.089c0-.391-.088-.748-.264-1.069a1.997 1.997 0 0 0-.715-.766 1.91 1.91 0 0 0-1.035-.283 1.98 1.98 0 0 0-1.476.636 2.292 2.292 0 0 0-.448.686 2.098 2.098 0 0 0-.159.811c0 .381.088.734.264 1.059.179.325.422.586.731.785.311.196.663.294 1.054.294Zm8.811 1.322c-.785-.003-1.457-.21-2.013-.621-.557-.411-.983-1.01-1.278-1.795-.295-.786-.443-1.732-.443-2.839 0-1.104.148-2.047.443-2.829.298-.782.726-1.379 1.283-1.79.56-.411 1.229-.616 2.008-.616.779 0 1.447.207 2.004.621.556.411.982 1.008 1.277 1.79.299.779.448 1.72.448 2.824 0 1.11-.148 2.058-.443 2.844-.295.782-.721 1.38-1.277 1.795-.557.411-1.227.616-2.009.616Zm0-1.327c.689 0 1.228-.337 1.616-1.01.391-.672.586-1.645.586-2.918 0-.845-.089-1.559-.268-2.143-.176-.586-.429-1.03-.761-1.332a1.663 1.663 0 0 0-1.173-.457c-.686 0-1.225.338-1.616 1.014-.391.676-.588 1.649-.591 2.918 0 .849.087 1.566.263 2.153.179.583.433 1.026.761 1.327.328.298.722.448 1.183.448Zm5.249-1.497h1.556c.034.315.141.584.324.806.185.218.427.384.725.497.299.112.63.169.995.169.391 0 .741-.067 1.049-.199.311-.133.557-.328.736-.587.179-.258.268-.576.268-.954 0-.338-.081-.65-.244-.935-.162-.285-.417-.514-.765-.686-.348-.172-.802-.259-1.362-.259h-.91v-1.163l2.446-2.824v-.074h-4.316v-1.318h6.324v1.114l-2.724 3.122v.08a3.76 3.76 0 0 1 1.278.293c.384.166.712.384.984.656.272.269.481.577.626.925.146.348.219.721.219 1.118a2.7 2.7 0 0 1-.467 1.562c-.312.454-.741.81-1.288 1.068-.543.256-1.167.383-1.869.383-.653 0-1.245-.112-1.775-.338a3.157 3.157 0 0 1-1.278-.964c-.321-.418-.499-.915-.532-1.492Zm9.688 2.749a.966.966 0 0 1-.701-.288.96.96 0 0 1-.293-.706c0-.272.097-.504.293-.696a.959.959 0 0 1 .701-.293c.272 0 .505.098.701.293a.938.938 0 0 1 .293.696c0 .182-.046.35-.139.502a1.023 1.023 0 0 1-.358.358.943.943 0 0 1-.497.134Zm2.901 2.77v-10.5h1.452v1.238h.124c.087-.16.211-.343.373-.552a2.12 2.12 0 0 1 .676-.547c.289-.159.67-.239 1.144-.239.616 0 1.167.156 1.65.468.484.311.864.76 1.139 1.347.278.586.418 1.292.418 2.118 0 .825-.138 1.533-.413 2.123-.275.586-.653 1.039-1.134 1.357a2.932 2.932 0 0 1-1.645.472c-.464 0-.844-.078-1.139-.234a2.164 2.164 0 0 1-.686-.546 4.302 4.302 0 0 1-.383-.557h-.089v4.052h-1.487Zm1.457-6.682c0 .537.078 1.007.234 1.412.156.404.381.721.676.949.295.226.656.338 1.084.338.444 0 .815-.117 1.113-.353.299-.238.524-.561.676-.969.156-.408.234-.867.234-1.377 0-.504-.076-.956-.229-1.357a2.075 2.075 0 0 0-.676-.95c-.298-.232-.671-.348-1.118-.348-.431 0-.796.111-1.094.333-.295.222-.519.532-.671.93-.153.397-.229.862-.229 1.392Zm9.959 3.967a2.958 2.958 0 0 1-1.651-.472c-.48-.318-.858-.771-1.133-1.357-.272-.59-.408-1.298-.408-2.123 0-.826.138-1.532.413-2.118.278-.587.659-1.036 1.143-1.347a2.973 2.973 0 0 1 1.646-.468c.474 0 .855.08 1.143.239.292.156.517.338.676.547.163.209.289.392.378.552h.09v-3.784h1.486V431h-1.452v-1.188h-.124a3.934 3.934 0 0 1-.388.557 2.141 2.141 0 0 1-.686.546c-.291.156-.669.234-1.133.234Zm.328-1.268c.427 0 .789-.112 1.084-.338.298-.228.523-.545.676-.949.156-.405.233-.875.233-1.412 0-.53-.076-.995-.228-1.392-.153-.398-.376-.708-.671-.93-.295-.222-.66-.333-1.094-.333-.448 0-.82.116-1.119.348a2.135 2.135 0 0 0-.676.95 3.874 3.874 0 0 0-.224 1.357c0 .51.077.969.229 1.377.153.408.378.731.676.969.302.236.673.353 1.114.353Zm9.127-6.517v1.193h-4.315v-1.193h4.315ZM261.761 431v-8.521c0-.478.104-.874.313-1.189.209-.318.486-.555.83-.71.345-.16.72-.239 1.124-.239.298 0 .553.025.766.074.212.047.369.09.472.13l-.348 1.203a7.714 7.714 0 0 0-.269-.07 1.521 1.521 0 0 0-.397-.044c-.362 0-.62.089-.776.268-.152.179-.229.437-.229.776V431h-1.486Z"/><path fill="#1FC16B" d="M114 454a6 6 0 1 1 0-12 6 6 0 0 1 0 12Zm-.598-3.6 4.242-4.243-.849-.848-3.393 3.394-1.698-1.697-.848.848 2.546 2.546Z"/><path fill="#0E121B" d="M134.08 446h-1.057a2.208 2.208 0 0 0-.891-1.381 2.405 2.405 0 0 0-.729-.358 2.926 2.926 0 0 0-.835-.119c-.528 0-1.007.134-1.436.401-.426.267-.766.66-1.018 1.18-.25.52-.375 1.158-.375 1.913 0 .756.125 1.394.375 1.914.252.52.592.913 1.018 1.18.429.267.908.401 1.436.401.29 0 .568-.04.835-.12a2.44 2.44 0 0 0 .729-.353c.222-.159.409-.354.563-.584.156-.233.265-.5.328-.801h1.057c-.08.446-.225.845-.435 1.197a3.278 3.278 0 0 1-1.837 1.458 3.942 3.942 0 0 1-1.24.191c-.744 0-1.406-.181-1.986-.545-.579-.364-1.035-.881-1.368-1.551-.332-.671-.498-1.466-.498-2.387 0-.92.166-1.716.498-2.386.333-.67.789-1.188 1.368-1.551.58-.364 1.242-.546 1.986-.546.441 0 .854.064 1.24.192.389.128.74.316 1.053.563.312.244.574.542.784.895.21.349.355.748.435 1.197Zm4.23 6.136c-.591 0-1.109-.14-1.555-.422a2.856 2.856 0 0 1-1.04-1.18c-.247-.506-.371-1.097-.371-1.773 0-.681.124-1.277.371-1.785.25-.509.596-.904 1.04-1.185.446-.281.964-.422 1.555-.422s1.108.141 1.551.422c.446.281.793.676 1.04 1.185.25.508.375 1.104.375 1.785 0 .676-.125 1.267-.375 1.773a2.822 2.822 0 0 1-1.04 1.18c-.443.282-.96.422-1.551.422Zm0-.903c.449 0 .818-.115 1.108-.345.29-.23.504-.533.643-.908.14-.375.209-.781.209-1.219 0-.437-.069-.845-.209-1.223a2.061 2.061 0 0 0-.643-.916c-.29-.233-.659-.349-1.108-.349-.449 0-.818.116-1.108.349-.29.233-.504.539-.643.916-.14.378-.209.786-.209 1.223 0 .438.069.844.209 1.219.139.375.353.678.643.908.29.23.659.345 1.108.345Zm4.501.767v-6.545h.972v1.022h.085c.136-.349.356-.62.66-.814.304-.196.669-.294 1.096-.294.431 0 .791.098 1.078.294.289.194.515.465.677.814h.068c.168-.338.419-.606.755-.805.335-.202.737-.303 1.206-.303.585 0 1.064.184 1.436.55.372.364.558.93.558 1.7V452h-1.006v-4.381c0-.483-.132-.828-.396-1.035a1.462 1.462 0 0 0-.933-.311c-.46 0-.817.139-1.07.417-.253.276-.379.625-.379 1.049V452h-1.023v-4.483c0-.372-.121-.672-.362-.899-.242-.23-.553-.345-.933-.345a1.37 1.37 0 0 0-.733.209 1.578 1.578 0 0 0-.546.579 1.714 1.714 0 0 0-.204.848V452h-1.006Zm10.43 2.455v-9h.971v1.039h.12c.074-.113.176-.258.306-.434a1.81 1.81 0 0 1 .572-.478c.25-.142.588-.213 1.014-.213.551 0 1.037.138 1.457.414.421.275.749.666.984 1.172.236.505.354 1.102.354 1.789 0 .694-.118 1.294-.354 1.803-.235.506-.562.898-.98 1.176-.417.276-.899.413-1.444.413-.421 0-.757-.069-1.01-.208a1.867 1.867 0 0 1-.584-.482 6.475 6.475 0 0 1-.315-.452h-.086v3.461h-1.005Zm.988-5.728c0 .495.073.931.218 1.309.145.375.356.669.635.882.278.21.619.315 1.022.315.421 0 .772-.111 1.053-.332.284-.225.497-.526.639-.904.145-.381.217-.804.217-1.27 0-.46-.071-.875-.213-1.244a1.916 1.916 0 0 0-.635-.882c-.281-.219-.634-.328-1.061-.328-.409 0-.752.103-1.031.311-.278.204-.488.491-.631.861-.142.366-.213.794-.213 1.282Zm7.33-5.454V452h-1.006v-8.727h1.006Zm4.586 8.863c-.63 0-1.174-.139-1.632-.417a2.808 2.808 0 0 1-1.052-1.176c-.245-.506-.367-1.094-.367-1.765 0-.67.122-1.261.367-1.772.247-.515.59-.915 1.031-1.202.443-.29.96-.435 1.551-.435.341 0 .678.057 1.01.171.332.113.635.298.908.554.272.253.49.588.652 1.005.162.418.242.932.242 1.543v.426h-5.045v-.869h4.023c0-.369-.074-.699-.222-.989a1.67 1.67 0 0 0-.622-.686 1.746 1.746 0 0 0-.946-.251c-.401 0-.747.099-1.04.298a1.96 1.96 0 0 0-.669.767 2.254 2.254 0 0 0-.234 1.014v.58c0 .494.085.913.255 1.257.174.341.414.601.721.78.306.176.663.264 1.069.264.264 0 .503-.037.716-.111.216-.077.402-.19.558-.341a1.55 1.55 0 0 0 .363-.571l.971.273a2.158 2.158 0 0 1-.515.869 2.52 2.52 0 0 1-.895.58 3.33 3.33 0 0 1-1.198.204Zm7.087-6.681v.852h-3.392v-.852h3.392Zm-2.404-1.569h1.006v6.239c0 .284.041.497.124.639a.637.637 0 0 0 .324.281c.133.046.274.069.421.069.111 0 .202-.006.273-.017l.171-.035.204.904a2.178 2.178 0 0 1-.75.119c-.284 0-.562-.061-.835-.183a1.656 1.656 0 0 1-.673-.558c-.176-.25-.265-.566-.265-.946v-6.512Zm6.591 8.25c-.631 0-1.175-.139-1.632-.417a2.803 2.803 0 0 1-1.053-1.176c-.244-.506-.366-1.094-.366-1.765 0-.67.122-1.261.366-1.772a2.888 2.888 0 0 1 1.031-1.202c.443-.29.96-.435 1.551-.435.341 0 .678.057 1.01.171.333.113.635.298.908.554.273.253.49.588.652 1.005.162.418.243.932.243 1.543v.426h-5.046v-.869h4.023c0-.369-.074-.699-.221-.989a1.673 1.673 0 0 0-.623-.686 1.746 1.746 0 0 0-.946-.251c-.4 0-.747.099-1.039.298a1.96 1.96 0 0 0-.669.767 2.242 2.242 0 0 0-.235 1.014v.58c0 .494.085.913.256 1.257.173.341.413.601.72.78.307.176.663.264 1.07.264.264 0 .503-.037.716-.111.215-.077.402-.19.558-.341.156-.153.277-.344.362-.571l.972.273a2.171 2.171 0 0 1-.516.869c-.241.247-.54.441-.895.58a3.325 3.325 0 0 1-1.197.204Zm6.711 0c-.545 0-1.027-.137-1.444-.413-.418-.278-.745-.67-.98-1.176-.236-.509-.354-1.109-.354-1.803 0-.687.118-1.284.354-1.789.235-.506.564-.897.984-1.172.42-.276.906-.414 1.457-.414.427 0 .763.071 1.01.213.25.14.441.299.571.478.134.176.238.321.311.434h.086v-3.221h1.005V452h-.971v-1.006h-.12c-.073.12-.179.27-.315.452-.136.179-.331.34-.584.482-.253.139-.589.208-1.01.208Zm.137-.903c.403 0 .744-.105 1.022-.315.279-.213.49-.507.635-.882.145-.378.218-.814.218-1.309 0-.488-.071-.916-.213-1.282a1.864 1.864 0 0 0-.631-.861c-.278-.208-.622-.311-1.031-.311-.426 0-.782.109-1.066.328-.281.216-.493.51-.635.882a3.51 3.51 0 0 0-.208 1.244c0 .466.071.889.213 1.27.145.378.358.679.639.904.284.221.636.332 1.057.332Z"/><path fill="#525866" d="M415.75 423.5h3.75v1.5H418v9.75c0 .199-.079.39-.22.53a.747.747 0 0 1-.53.22h-10.5a.747.747 0 0 1-.53-.22.747.747 0 0 1-.22-.53V425h-1.5v-1.5h3.75v-2.25c0-.199.079-.39.22-.53a.747.747 0 0 1 .53-.22h6c.199 0 .39.079.53.22.141.14.22.331.22.53v2.25Zm.75 1.5h-9v9h9v-9Zm-6.75 2.25h1.5v4.5h-1.5v-4.5Zm3 0h1.5v4.5h-1.5v-4.5Zm-3-5.25v1.5h4.5V422h-4.5Z"/><mask id="f" fill="#fff"><path d="M20 492h440v68H20v-68Z"/></mask><path fill="#fff" d="M20 492h440v68H20v-68Z"/><path fill="#E1E4EA" d="M20 493h440v-2H20v2Z" mask="url(#f)"/><path fill="#2597D0" d="M349 516a8 8 0 0 1 8-8h75a8 8 0 0 1 8 8v20a8 8 0 0 1-8 8h-75a8 8 0 0 1-8-8v-20Z"/><path fill="#fff" d="M361.616 522.141v-1.323h7.88v1.323h-3.176V531h-1.532v-8.859h-3.172Zm8.625 8.859v-7.636h1.437v1.213h.08c.139-.411.384-.734.736-.97a2.107 2.107 0 0 1 1.203-.358 7.15 7.15 0 0 1 .631.035v1.422a2.609 2.609 0 0 0-.318-.055 3.068 3.068 0 0 0-.457-.035 1.94 1.94 0 0 0-.94.224 1.66 1.66 0 0 0-.885 1.497V531h-1.487Zm7.443.169c-.483 0-.921-.089-1.312-.268a2.218 2.218 0 0 1-.93-.791c-.225-.345-.338-.767-.338-1.268 0-.431.083-.785.249-1.064.165-.278.389-.498.671-.661a3.53 3.53 0 0 1 .945-.368 9.335 9.335 0 0 1 1.063-.189l1.114-.129c.285-.036.492-.094.622-.174.129-.079.193-.209.193-.388v-.034c0-.435-.122-.771-.367-1.01-.242-.238-.604-.358-1.084-.358-.501 0-.895.111-1.184.333-.285.219-.482.463-.591.731l-1.397-.318c.166-.464.408-.838.726-1.124a2.943 2.943 0 0 1 1.108-.626 4.319 4.319 0 0 1 1.318-.199c.305 0 .628.037.969.11.345.069.667.198.965.387.301.189.548.459.741.811.192.348.288.8.288 1.357V531h-1.452v-1.044h-.059a2.152 2.152 0 0 1-.433.567 2.308 2.308 0 0 1-.741.462c-.301.123-.663.184-1.084.184Zm.324-1.193c.411 0 .762-.081 1.054-.244.295-.162.518-.374.671-.636.156-.265.233-.549.233-.85v-.985c-.053.053-.155.103-.308.15-.149.043-.32.081-.512.114-.192.03-.379.058-.562.084l-.457.06a3.683 3.683 0 0 0-.791.184c-.235.086-.424.21-.566.373-.14.159-.209.371-.209.636 0 .368.136.647.408.835.271.186.618.279 1.039.279Zm5.341 1.024v-7.636h1.486V531h-1.486Zm.751-8.815a.948.948 0 0 1-.667-.258.843.843 0 0 1-.273-.627.83.83 0 0 1 .273-.626.935.935 0 0 1 .667-.263c.258 0 .478.087.661.263a.824.824 0 0 1 .278.626.837.837 0 0 1-.278.627.93.93 0 0 1-.661.258Zm4.138 4.281V531h-1.487v-7.636h1.427v1.243h.094a2.18 2.18 0 0 1 .826-.975c.378-.245.853-.368 1.427-.368.52 0 .976.11 1.367.328a2.2 2.2 0 0 1 .91.965c.215.427.323.956.323 1.586V531h-1.487v-4.678c0-.554-.144-.986-.432-1.298-.289-.315-.685-.472-1.188-.472-.345 0-.652.074-.92.224a1.607 1.607 0 0 0-.632.656c-.152.285-.228.63-.228 1.034Zm18.755-5.648V531h-1.412l-5.176-7.467h-.094V531h-1.536v-10.182h1.422l5.18 7.477h.094v-7.477h1.522Zm5.254 10.336c-.716 0-1.341-.164-1.874-.492a3.315 3.315 0 0 1-1.243-1.377c-.295-.59-.443-1.28-.443-2.068 0-.793.148-1.485.443-2.079a3.317 3.317 0 0 1 1.243-1.382c.533-.328 1.158-.492 1.874-.492.716 0 1.341.164 1.874.492.534.329.948.789 1.243 1.382.295.594.443 1.286.443 2.079 0 .788-.148 1.478-.443 2.068a3.315 3.315 0 0 1-1.243 1.377c-.533.328-1.158.492-1.874.492Zm.005-1.248c.464 0 .849-.122 1.153-.368.305-.245.531-.571.677-.979a3.9 3.9 0 0 0 .223-1.347c0-.488-.074-.935-.223-1.343a2.19 2.19 0 0 0-.677-.989c-.304-.249-.689-.373-1.153-.373-.467 0-.855.124-1.163.373a2.22 2.22 0 0 0-.681.989 3.958 3.958 0 0 0-.219 1.343c0 .49.073.939.219 1.347.149.408.376.734.681.979.308.246.696.368 1.163.368Zm6.553 1.094-2.247-7.636h1.536l1.497 5.608h.074l1.502-5.608h1.536l1.491 5.583h.075l1.486-5.583h1.537L425.049 531h-1.516l-1.551-5.513h-.114L420.316 531h-1.511Z"/></g><path stroke="#E1E4EA" d="M20.5 24c0-10.77 8.73-19.5 19.5-19.5h400c10.77 0 19.5 8.73 19.5 19.5v516c0 10.77-8.73 19.5-19.5 19.5H40c-10.77 0-19.5-8.73-19.5-19.5V24Z"/></g><defs><filter id="a" width="480" height="596" x="0" y="0" color-interpolation-filters="sRGB" filterUnits="userSpaceOnUse"><feFlood flood-opacity="0" result="BackgroundImageFix"/><feColorMatrix in="SourceAlpha" result="hardAlpha" values="0 0 0 0 0 0 0 0 0 0 0 0 0 0 0 0 0 0 127 0"/><feMorphology in="SourceAlpha" radius="12" result="effect1_dropShadow_3385_12828"/><feOffset dy="16"/><feGaussianBlur stdDeviation="16"/><feColorMatrix values="0 0 0 0 0.0533333 0 0 0 0 0.0693333 0 0 0 0 0.106667 0 0 0 0.1 0"/><feBlend in2="BackgroundImageFix" result="effect1_dropShadow_3385_12828"/><feBlend in="SourceGraphic" in2="effect1_dropShadow_3385_12828" result="shape"/></filter><filter id="d" width="404" height="40" x="38" y="119" color-interpolation-filters="sRGB" filterUnits="userSpaceOnUse"><feFlood flood-opacity="0" result="BackgroundImageFix"/><feColorMatrix in="SourceAlpha" result="hardAlpha" values="0 0 0 0 0 0 0 0 0 0 0 0 0 0 0 0 0 0 127 0"/><feOffset dy="1"/><feGaussianBlur stdDeviation="1"/><feComposite in2="hardAlpha" operator="out"/><feColorMatrix values="0 0 0 0 0.0392157 0 0 0 0 0.0509804 0 0 0 0 0.0784314 0 0 0 0.03 0"/><feBlend in2="BackgroundImageFix" result="effect1_dropShadow_3385_12828"/><feBlend in="SourceGraphic" in2="effect1_dropShadow_3385_12828" result="shape"/></filter><filter id="e" width="104" height="36" x="188" y="315" color-interpolation-filters="sRGB" filterUnits="userSpaceOnUse"><feFlood flood-opacity="0" result="BackgroundImageFix"/><feColorMatrix in="SourceAlpha" result="hardAlpha" values="0 0 0 0 0 0 0 0 0 0 0 0 0 0 0 0 0 0 127 0"/><feOffset dy="1"/><feGaussianBlur stdDeviation="1"/><feComposite in2="hardAlpha" operator="out"/><feColorMatrix values="0 0 0 0 0.0392157 0 0 0 0 0.0509804 0 0 0 0 0.0784314 0 0 0 0.03 0"/><feBlend in2="BackgroundImageFix" result="effect1_dropShadow_3385_12828"/><feBlend in="SourceGraphic" in2="effect1_dropShadow_3385_12828" result="shape"/></filter><clipPath id="b"><path fill="#fff" d="M20 24c0-11.046 8.954-20 20-20h400c11.046 0 20 8.954 20 20v516c0 11.046-8.954 20-20 20H40c-11.046 0-20-8.954-20-20V24Z"/></clipPath></defs></svg>